<mxfile host="65bd71144e">
    <diagram id="kit44FxKr9xKgH3bXF1w" name="Page-1">
        <mxGraphModel dx="1962" dy="887" grid="1" gridSize="10" guides="1" tooltips="1" connect="1" arrows="1" fold="1" page="1" pageScale="1" pageWidth="850" pageHeight="1100" math="0" shadow="0">
            <root>
                <mxCell id="0"/>
                <mxCell id="1" parent="0"/>
                <mxCell id="4" style="edgeStyle=orthogonalEdgeStyle;rounded=0;orthogonalLoop=1;jettySize=auto;html=1;entryX=0;entryY=0.5;entryDx=0;entryDy=0;entryPerimeter=0;" parent="1" source="6" target="14" edge="1">
                    <mxGeometry relative="1" as="geometry">
                        <mxPoint x="564.5" y="426" as="targetPoint"/>
                    </mxGeometry>
                </mxCell>
                <mxCell id="5" value="API request" style="edgeLabel;html=1;align=center;verticalAlign=middle;resizable=0;points=[];" parent="4" vertex="1" connectable="0">
                    <mxGeometry x="-0.1962" y="-2" relative="1" as="geometry">
                        <mxPoint y="12" as="offset"/>
                    </mxGeometry>
                </mxCell>
                <mxCell id="6" value="" style="strokeColor=#dddddd;shadow=1;strokeWidth=1;rounded=1;absoluteArcSize=1;arcSize=2;" parent="1" vertex="1">
                    <mxGeometry x="360" y="404" width="100" height="44" as="geometry"/>
                </mxCell>
                <mxCell id="7" value="Logs API" style="sketch=0;dashed=0;connectable=0;html=1;fillColor=#757575;strokeColor=none;shape=mxgraph.gcp2.logs_api;part=1;labelPosition=right;verticalLabelPosition=middle;align=left;verticalAlign=middle;spacingLeft=5;fontSize=12;" parent="6" vertex="1">
                    <mxGeometry y="0.5" width="32" height="32" relative="1" as="geometry">
                        <mxPoint x="5" y="-16" as="offset"/>
                    </mxGeometry>
                </mxCell>
                <mxCell id="8" style="edgeStyle=orthogonalEdgeStyle;rounded=0;orthogonalLoop=1;jettySize=auto;html=1;entryX=0.5;entryY=0;entryDx=0;entryDy=0;entryPerimeter=0;" parent="1" source="9" target="14" edge="1">
                    <mxGeometry relative="1" as="geometry">
                        <mxPoint x="599" y="390" as="targetPoint"/>
                    </mxGeometry>
                </mxCell>
                <mxCell id="9" value="cron 10min&lt;br&gt;" style="sketch=0;outlineConnect=0;fontColor=#232F3E;gradientColor=none;fillColor=#B0084D;strokeColor=none;dashed=0;verticalLabelPosition=bottom;verticalAlign=top;align=center;html=1;fontSize=12;fontStyle=0;aspect=fixed;pointerEvents=1;shape=mxgraph.aws4.event_time_based;" parent="1" vertex="1">
                    <mxGeometry x="560" y="250" width="78" height="78" as="geometry"/>
                </mxCell>
                <mxCell id="10" style="edgeStyle=orthogonalEdgeStyle;rounded=0;orthogonalLoop=1;jettySize=auto;html=1;entryX=0;entryY=0.5;entryDx=0;entryDy=0;entryPerimeter=0;" parent="1" source="12" target="16" edge="1">
                    <mxGeometry relative="1" as="geometry"/>
                </mxCell>
                <mxCell id="11" style="edgeStyle=orthogonalEdgeStyle;rounded=0;orthogonalLoop=1;jettySize=auto;html=1;exitX=0.5;exitY=1;exitDx=0;exitDy=0;exitPerimeter=0;" parent="1" source="16" target="20" edge="1">
                    <mxGeometry relative="1" as="geometry"/>
                </mxCell>
                <mxCell id="23" value="failed-event-source-mapping" style="edgeLabel;html=1;align=center;verticalAlign=middle;resizable=0;points=[];" vertex="1" connectable="0" parent="11">
                    <mxGeometry x="0.06" relative="1" as="geometry">
                        <mxPoint as="offset"/>
                    </mxGeometry>
                </mxCell>
                <mxCell id="12" value="web_raw_streaming&lt;br&gt;" style="sketch=0;points=[[0,0,0],[0.25,0,0],[0.5,0,0],[0.75,0,0],[1,0,0],[0,1,0],[0.25,1,0],[0.5,1,0],[0.75,1,0],[1,1,0],[0,0.25,0],[0,0.5,0],[0,0.75,0],[1,0.25,0],[1,0.5,0],[1,0.75,0]];outlineConnect=0;fontColor=#232F3E;gradientColor=#945DF2;gradientDirection=north;fillColor=#5A30B5;strokeColor=#ffffff;dashed=0;verticalLabelPosition=bottom;verticalAlign=top;align=center;html=1;fontSize=12;fontStyle=0;aspect=fixed;shape=mxgraph.aws4.resourceIcon;resIcon=mxgraph.aws4.kinesis_data_streams;" parent="1" vertex="1">
                    <mxGeometry x="706" y="387" width="78" height="78" as="geometry"/>
                </mxCell>
                <mxCell id="13" style="edgeStyle=orthogonalEdgeStyle;rounded=0;orthogonalLoop=1;jettySize=auto;html=1;" parent="1" source="14" target="12" edge="1">
                    <mxGeometry relative="1" as="geometry"/>
                </mxCell>
                <mxCell id="14" value="web_ingesting_lambda" style="sketch=0;points=[[0,0,0],[0.25,0,0],[0.5,0,0],[0.75,0,0],[1,0,0],[0,1,0],[0.25,1,0],[0.5,1,0],[0.75,1,0],[1,1,0],[0,0.25,0],[0,0.5,0],[0,0.75,0],[1,0.25,0],[1,0.5,0],[1,0.75,0]];outlineConnect=0;fontColor=#232F3E;gradientColor=#F78E04;gradientDirection=north;fillColor=#D05C17;strokeColor=#ffffff;dashed=0;verticalLabelPosition=bottom;verticalAlign=top;align=center;html=1;fontSize=12;fontStyle=0;aspect=fixed;shape=mxgraph.aws4.resourceIcon;resIcon=mxgraph.aws4.lambda;" parent="1" vertex="1">
                    <mxGeometry x="560" y="387" width="78" height="78" as="geometry"/>
                </mxCell>
                <mxCell id="15" style="edgeStyle=orthogonalEdgeStyle;rounded=0;orthogonalLoop=1;jettySize=auto;html=1;entryX=0;entryY=0.5;entryDx=0;entryDy=0;entryPerimeter=0;" parent="1" source="16" target="18" edge="1">
                    <mxGeometry relative="1" as="geometry"/>
                </mxCell>
                <mxCell id="28" style="edgeStyle=none;html=1;entryX=0.5;entryY=1;entryDx=0;entryDy=0;entryPerimeter=0;" edge="1" parent="1" source="16" target="26">
                    <mxGeometry relative="1" as="geometry"/>
                </mxCell>
                <mxCell id="16" value="flatting_data_lambda" style="sketch=0;points=[[0,0,0],[0.25,0,0],[0.5,0,0],[0.75,0,0],[1,0,0],[0,1,0],[0.25,1,0],[0.5,1,0],[0.75,1,0],[1,1,0],[0,0.25,0],[0,0.5,0],[0,0.75,0],[1,0.25,0],[1,0.5,0],[1,0.75,0]];outlineConnect=0;fontColor=#232F3E;gradientColor=#F78E04;gradientDirection=north;fillColor=#D05C17;strokeColor=#ffffff;dashed=0;verticalLabelPosition=bottom;verticalAlign=top;align=center;html=1;fontSize=12;fontStyle=0;aspect=fixed;shape=mxgraph.aws4.resourceIcon;resIcon=mxgraph.aws4.lambda;" parent="1" vertex="1">
                    <mxGeometry x="850" y="387" width="78" height="78" as="geometry"/>
                </mxCell>
                <mxCell id="17" style="edgeStyle=orthogonalEdgeStyle;rounded=0;orthogonalLoop=1;jettySize=auto;html=1;" parent="1" source="18" target="19" edge="1">
                    <mxGeometry relative="1" as="geometry"/>
                </mxCell>
                <mxCell id="18" value="web_data_stream_s3" style="sketch=0;points=[[0,0,0],[0.25,0,0],[0.5,0,0],[0.75,0,0],[1,0,0],[0,1,0],[0.25,1,0],[0.5,1,0],[0.75,1,0],[1,1,0],[0,0.25,0],[0,0.5,0],[0,0.75,0],[1,0.25,0],[1,0.5,0],[1,0.75,0]];outlineConnect=0;fontColor=#232F3E;gradientColor=#945DF2;gradientDirection=north;fillColor=#5A30B5;strokeColor=#ffffff;dashed=0;verticalLabelPosition=bottom;verticalAlign=top;align=center;html=1;fontSize=12;fontStyle=0;aspect=fixed;shape=mxgraph.aws4.resourceIcon;resIcon=mxgraph.aws4.kinesis_data_firehose;" parent="1" vertex="1">
                    <mxGeometry x="990" y="387" width="78" height="78" as="geometry"/>
                </mxCell>
                <mxCell id="31" style="edgeStyle=none;html=1;entryX=0;entryY=0.5;entryDx=0;entryDy=0;entryPerimeter=0;" edge="1" parent="1" source="19" target="30">
                    <mxGeometry relative="1" as="geometry"/>
                </mxCell>
                <mxCell id="19" value="web_flatten_data_s3" style="outlineConnect=0;dashed=0;verticalLabelPosition=bottom;verticalAlign=top;align=center;html=1;shape=mxgraph.aws3.s3;fillColor=#E05243;gradientColor=none;" parent="1" vertex="1">
                    <mxGeometry x="990" y="550" width="76.5" height="93" as="geometry"/>
                </mxCell>
                <mxCell id="22" style="edgeStyle=none;html=1;" edge="1" parent="1" source="20" target="21">
                    <mxGeometry relative="1" as="geometry"/>
                </mxCell>
                <mxCell id="20" value="flatten_data_dlq_sns" style="sketch=0;points=[[0,0,0],[0.25,0,0],[0.5,0,0],[0.75,0,0],[1,0,0],[0,1,0],[0.25,1,0],[0.5,1,0],[0.75,1,0],[1,1,0],[0,0.25,0],[0,0.5,0],[0,0.75,0],[1,0.25,0],[1,0.5,0],[1,0.75,0]];outlineConnect=0;fontColor=#232F3E;gradientColor=#FF4F8B;gradientDirection=north;fillColor=#BC1356;strokeColor=#ffffff;dashed=0;verticalLabelPosition=bottom;verticalAlign=top;align=center;html=1;fontSize=12;fontStyle=0;aspect=fixed;shape=mxgraph.aws4.resourceIcon;resIcon=mxgraph.aws4.sns;" parent="1" vertex="1">
                    <mxGeometry x="850" y="565" width="78" height="78" as="geometry"/>
                </mxCell>
                <mxCell id="25" style="edgeStyle=none;html=1;" edge="1" parent="1" source="21" target="24">
                    <mxGeometry relative="1" as="geometry"/>
                </mxCell>
                <mxCell id="21" value="failed-buffer-sqs" style="sketch=0;points=[[0,0,0],[0.25,0,0],[0.5,0,0],[0.75,0,0],[1,0,0],[0,1,0],[0.25,1,0],[0.5,1,0],[0.75,1,0],[1,1,0],[0,0.25,0],[0,0.5,0],[0,0.75,0],[1,0.25,0],[1,0.5,0],[1,0.75,0]];outlineConnect=0;fontColor=#232F3E;gradientColor=#FF4F8B;gradientDirection=north;fillColor=#BC1356;strokeColor=#ffffff;dashed=0;verticalLabelPosition=bottom;verticalAlign=top;align=center;html=1;fontSize=12;fontStyle=0;aspect=fixed;shape=mxgraph.aws4.resourceIcon;resIcon=mxgraph.aws4.sqs;fillOpacity=50;" vertex="1" parent="1">
                    <mxGeometry x="850" y="700" width="78" height="78" as="geometry"/>
                </mxCell>
                <mxCell id="24" value="web_data_backup_s3" style="outlineConnect=0;dashed=0;verticalLabelPosition=bottom;verticalAlign=top;align=center;html=1;shape=mxgraph.aws3.s3;fillColor=#E05243;gradientColor=none;fillOpacity=50;" vertex="1" parent="1">
                    <mxGeometry x="706" y="693" width="76.5" height="93" as="geometry"/>
                </mxCell>
                <mxCell id="26" value="moniroting_dataset" style="sketch=0;points=[[0,0,0],[0.25,0,0],[0.5,0,0],[0.75,0,0],[1,0,0],[0,1,0],[0.25,1,0],[0.5,1,0],[0.75,1,0],[1,1,0],[0,0.25,0],[0,0.5,0],[0,0.75,0],[1,0.25,0],[1,0.5,0],[1,0.75,0]];outlineConnect=0;fontColor=#232F3E;gradientColor=#4D72F3;gradientDirection=north;fillColor=#3334B9;strokeColor=#ffffff;dashed=0;verticalLabelPosition=bottom;verticalAlign=top;align=center;html=1;fontSize=12;fontStyle=0;aspect=fixed;shape=mxgraph.aws4.resourceIcon;resIcon=mxgraph.aws4.dynamodb;strokeOpacity=100;fillOpacity=50;" vertex="1" parent="1">
                    <mxGeometry x="850" y="250" width="78" height="78" as="geometry"/>
                </mxCell>
                <mxCell id="29" value="user-X-api-gateway" style="outlineConnect=0;dashed=0;verticalLabelPosition=bottom;verticalAlign=top;align=center;html=1;shape=mxgraph.aws3.api_gateway;fillColor=#D9A741;gradientColor=none;fillOpacity=50;" vertex="1" parent="1">
                    <mxGeometry x="1300" y="550" width="76.5" height="93" as="geometry"/>
                </mxCell>
                <mxCell id="33" style="edgeStyle=none;html=1;" edge="1" parent="1" source="30" target="29">
                    <mxGeometry relative="1" as="geometry"/>
                </mxCell>
                <mxCell id="30" value="web_data_puller-lambda" style="sketch=0;points=[[0,0,0],[0.25,0,0],[0.5,0,0],[0.75,0,0],[1,0,0],[0,1,0],[0.25,1,0],[0.5,1,0],[0.75,1,0],[1,1,0],[0,0.25,0],[0,0.5,0],[0,0.75,0],[1,0.25,0],[1,0.5,0],[1,0.75,0]];outlineConnect=0;fontColor=#232F3E;gradientColor=#F78E04;gradientDirection=north;fillColor=#D05C17;strokeColor=#ffffff;dashed=0;verticalLabelPosition=bottom;verticalAlign=top;align=center;html=1;fontSize=12;fontStyle=0;aspect=fixed;shape=mxgraph.aws4.resourceIcon;resIcon=mxgraph.aws4.lambda;fillOpacity=50;" vertex="1" parent="1">
                    <mxGeometry x="1140" y="557.5" width="78" height="78" as="geometry"/>
                </mxCell>
                <mxCell id="34" value="Data Pipeline Zone" style="swimlane;horizontal=0;" vertex="1" parent="1">
                    <mxGeometry x="225" y="230" width="1275" height="590" as="geometry"/>
                </mxCell>
                <mxCell id="35" value="X-Ops" style="swimlane;horizontal=0;" vertex="1" parent="1">
                    <mxGeometry x="225" y="820" width="1275" height="254.5" as="geometry"/>
                </mxCell>
                <mxCell id="38" style="edgeStyle=elbowEdgeStyle;html=1;elbow=vertical;" edge="1" parent="35" source="36" target="37">
                    <mxGeometry relative="1" as="geometry">
                        <Array as="points">
                            <mxPoint x="64" y="78"/>
                        </Array>
                    </mxGeometry>
                </mxCell>
                <mxCell id="36" value="" style="sketch=0;pointerEvents=1;shadow=0;dashed=0;html=1;strokeColor=none;fillColor=#505050;labelPosition=center;verticalLabelPosition=bottom;verticalAlign=top;outlineConnect=0;align=center;shape=mxgraph.office.devices.laptop;" vertex="1" parent="35">
                    <mxGeometry x="55" y="115" width="58" height="34" as="geometry"/>
                </mxCell>
                <mxCell id="40" style="edgeStyle=elbowEdgeStyle;elbow=vertical;html=1;entryX=0;entryY=0.5;entryDx=0;entryDy=0;" edge="1" parent="35" source="37">
                    <mxGeometry relative="1" as="geometry">
                        <mxPoint x="383" y="77.5" as="targetPoint"/>
                        <Array as="points">
                            <mxPoint x="393" y="78"/>
                        </Array>
                    </mxGeometry>
                </mxCell>
                <mxCell id="41" value="CICD" style="edgeLabel;html=1;align=center;verticalAlign=middle;resizable=0;points=[];" vertex="1" connectable="0" parent="40">
                    <mxGeometry x="-0.173" y="-2" relative="1" as="geometry">
                        <mxPoint as="offset"/>
                    </mxGeometry>
                </mxCell>
                <mxCell id="37" value="Git" style="dashed=0;outlineConnect=0;html=1;align=center;labelPosition=center;verticalLabelPosition=bottom;verticalAlign=top;shape=mxgraph.weblogos.github" vertex="1" parent="35">
                    <mxGeometry x="165" y="40" width="75" height="75" as="geometry"/>
                </mxCell>
                <mxCell id="42" value="" style="outlineConnect=0;dashed=0;verticalLabelPosition=bottom;verticalAlign=top;align=center;html=1;shape=mxgraph.aws3.cloud_2;fillColor=#F58534;gradientColor=none;" vertex="1" parent="35">
                    <mxGeometry x="528" y="40" width="75" height="75" as="geometry"/>
                </mxCell>
                <mxCell id="44" style="edgeStyle=elbowEdgeStyle;elbow=vertical;html=1;" edge="1" parent="35" source="43" target="42">
                    <mxGeometry relative="1" as="geometry"/>
                </mxCell>
                <mxCell id="46" style="edgeStyle=elbowEdgeStyle;elbow=vertical;html=1;entryX=0;entryY=0.5;entryDx=0;entryDy=0;" edge="1" parent="35" source="43" target="45">
                    <mxGeometry relative="1" as="geometry">
                        <Array as="points">
                            <mxPoint x="523" y="171"/>
                        </Array>
                    </mxGeometry>
                </mxCell>
                <mxCell id="43" value="" style="shape=image;verticalLabelPosition=bottom;labelBackgroundColor=#ffffff;verticalAlign=top;aspect=fixed;imageAspect=0;image=data:image/png,iVBORw0KGgoAAAANSUhEUgAAANsAAADCCAYAAADAWrcTAAAgAElEQVR4Ae2dZ5QURdeAfb8355xzDuprjiAYUEkuQUBAEFAxISYUBRXFhHjAjAkVkLQcCQoKJhBQWQ5Iks1sYNl0Nmfen/c7T421FE3P7szszOzszv3Rp3t6OlbXU/fWrXtvHfe///1PdNEy0DoQ+zpwnBZy7AtZy1jLmDqgsKlkV80mTnWgW8F2+PD/pKnpsFaeOFUeldjhSexuBVtZaZO8uaxUPthQIdXVzQqdQpdQdaBbwVaQ3yCP3J8vd9x4QF55rli2b6uWykqFTiVQeBIoVuXVrWArzG+Qh+/Nl0EXZcjw/hnywN35sjK1TPbvrZUalXQJ1crHqkIn8nW7H2z35cuwfhkyYmCmDO6TIWOGZMmsBwtl4/uVUljQIIdbEqOVS+RKoc8WmzrSrWG7YmCmDOufYSTdmMFZ8swTB6Ugr0Gqq5qlpUUNKQpVbKAKVq7dHjaAYxk+IEOGXBIAb8nCEikra1K1Sg0oca0DSQMbauWIAYG+3JWDs2TShBxZsbRMDh1siGuBB2v1dH98pUxnlHfSwGYlnFUtgW/i6ByZOa1A1q0pl4pylXSdUQGT6Z5JCZsF7/K+GTLyskyZfE2OPDunSLZuqjSD4gyOJ1Ml0HeNz/dOatjcvhzb02/Pk+ULy2TP5zVSW9OiwGmfLqp1IOlhs1IOtXJo3wxJuTBDHptRIBvWVUhebr3U1yt0KvmiI/kUti+tlRY61oMvzpCRKZlGtdyZVi3lZU3S3KxDBQpdx6BT2Hxgs+DhiTJ+eLbMn3dISoobtT+namWH1EqFrQ3YUC0Zn8P165qR2bJofrEZEFcDSsda+GSVkApbG7Ah4Qxw/QPAjRuWZZyc3327XAfFVcqFLeUUtnZgsyol0F3eL8MsN0/IkTmPHpRNH1RKuY7PhV3pVLJ1g5bKeP07jsgWlGivcfu64rJMufPmA7Lg5RLBiFJfp1bLZIUo1PdWyRaiZPMCaxyc+6TLlYMy5cFp+bJ2VblkZdRJQ0OLaJ9O+3R+ACpsEcJm4cOAMvjidMEbZe5jhbJta5WxXDY26lCBX4VL5n0KWwdhc6FLuYjIgnRZsqBEDhWpg3Myg+X37gpblGADOuOFcmmGPDQ9X/burlXDQTewA/hBE+k+hS2KsAHc0EszZKaBrcbAhjpZVdksTapWHtP4HD58WIqLq6WxMTnyxChsMYAtINkCsAHalk2V8si9BZL2WZXUqdVSGhqaJT29TGbP3iYLF34upaWBsopUYnSV8xS2GMNWWdFsLJUp52fIPbfmyaL5JfLF3lqpq02+oQJSUeTmVsqyZfvklls+lD59UmXWrC1y8GDVMVKvqwAUznMqbLGGrbJZ3llTLgPOSze5UMYOzZLZMwtl3epyycmqk2SxWhYUVMr69bkya9ZnMnz4GjnllMVyxhlLZfbsrVJUVK2whUNtIhwbr0Fta4H0W9Nnc9VI8lYC28Be6caAQuavlAvS5ZpR2fLc3CIzVFB8qFFaumHWLyRZRUWd7NxZLPPm7ZBhw9bI6acvkXPOWSo9ey6Ts89eprAlAjiRPENXgM0CGhgUDzg4L369xMTOkduyO2T94h3q6pokL69SVq1KN5LszDOXytlnL5VevZaZRWHr4qbargRbK3T9MmTQl/ktcXCmj9eVPVB49qqqBtm8OU/GjVsrxx+/SM44Y4mRZBY01gqbwmbS3lkQIlm3p0Z6r8nY3IgBgXR7Iy/LkrtvOSAfrK/okgmICLDd9lmhTJ36kfTqlSrnnbdMevRYZtYuaApbFwcNtbMrSjYLH9DRnyNCfOLobJnzaKF8urmyy+RC2b27WB5/fJuMHPm2sTLSLwM2L2T2t0q2Lg5cV4bNQoevJdLxqsuzZOrkA/Lys4dk5/bEtNY1NbWYftm8eTtl0qT3pV+/lXLuuQFpZqEKtlbYFLa4q5EWMu8a6HBuZqgA6+bq1DLJzqxLiAREeHxg/Fi9OkNmzNgql166whg/evQ4YgAJBpndr7ApbAkDm4XPSjpCeZ55okg2f1QpRQcbOmV8jklJig9Vy8aNeTJ3bpoMH75aTjrpDWPKb0tltIC5a4VNYUs42Cx0rFMuyJAbx+UYL5Q9u2qMESVeWb+wMGZklMuCBbtl1Ki3DGTnnhu6JHNBY1thU9gSGjaAQ7VkUHzS+BxJXVIaUymHGZ9+WXV1o6xblyljx66VM89cctR4mReiUH8rbApbwsNmhgq+nCTEpE6fmCMb3imPyVziDExv335Qbrxxg/TunRrUjB8qYO5xCpvClvCwWbUyMD4XGCq4dlS2PHBPvunPRWNa44b6Ftm5s0Tuv3+zsTD27r08qqABncKmsHUZ2FzoGJ8jAdHka3Pl+SeLZPu2KqmOYFpj+n+7dxXLc8/ukPHj10ufPivkrLOO9f5wJVSk2wpbF4eNVARPzS6UlIvSTd5+Wn9bKeO1DteDJBrPZQbE+wcmeyS35X1T8mTpglLZu6tGWkJMm44pf/myL2TKlI9k4MCVctZZS82YWaQwtXeewtbFYauqaja5HGfeU2AyGJPJGIffaFToUK/RGbC5z8b7DrmYtOmBUB5cvwry633nKsD4QXjL++8fkDlz0mTIkNXG+IH3R3uwdPR/ha2Lw4bLFqoQniQLXi42eR1p6Wn5Ga9yK2WstjsbNvteqJZAx/vPfyHghUJUgXVyrqlplN27S+Sll3bK4MErBa/8cAalFbbw0/V1q+BRb1hOxv5amfdkkVx3ZbYBDeBirVomCmwWOqT7Zb0zZOzlWQG1siWQYm/PnhK5664P5YQTFsnZZy9p04+xo2D5na+SrRtINhc4WnGCMvftqZHHZxaYAE5giCVwiQYb0PG+fXvsN5mbbbzcp58WyoQJ66IyZuYHU3v7FLZuBpsFjyzFxUWNZhrfGVPzzKAwiVVjoVp2LdjWGler9sCIxf8KWzeFDeiQcDU1zZKxv07WvFkmUyYdkOH9A6nnrMoVjbXCFjysxoVWYevGsFkph2rJwO+2T6pk/vPFcut1uWb+NdygFLbQQHGhiXRbYUsC2Cx0rA8WNMj6teUy55FC4+DL7DSYzjvSp1PJFhqwCluSwRZQLw9Lfl69rFhaJnffkicTRmSZOdgwnUcCncKmsLkNurvdrU3/7ou2t93UdFgKCxrkhaeL5LoxOcb9CSkXrhFFYVPYgtU1hc1Hmmem18mjMwpkVEqWDL0kIOFClXIKm8KmsPlAFaxQkHK4fn22tdKkJKAvN/ji0AwoCpvCFqxeqWRrA8LamhY5kFMvG9ZWCONzA3qlm2Q8bUk5hU1hU9jagCpY4bDfDhV8vrNa3ni1RG69PtcAh7Tz688pbApbsPqkki1ECHFwLitrko/eqzQ5+m8an2OSq5pYMieUR2FT2BS2EKEKVlDu/kNFjcYL5eF7C0xCVYCzUk5hU9jcuuJuq2TrAITkcVzwconcMjHXJFXFCwX10p151DuLTTS8VMK9Bn1Mf0dk9Y10YYj1tsLWAdj4OHjR52bVyVOzD8qwvpkmhmzmNObUDsymqbD5Szr1IOlgxYt1y5Co18fJuba2RdK/qJVptx8wwwW7dipsbflNKmwKW8QzYGK1bGxoMXkcv9hTK+VlTeZaKtlUslkhoWpkDBqY+vqW1pwfFrZ+PQMzj4bb34rG8dpnCz+FgQUkmmuFLQawuR+IgfHNGyvlysGZMrgPVsv4Z/xKNNgCKuRSOeecZbJo0S4pK6uLWKNwyzrRtxW2GMOG6xdRBUzlO+OufJOAh7wgdqggGpKrvWskCmxMvsFUv+efnyrXXPOuzJ6dJnv3lkp9fUDlTnRYOvp8CluMYbMfCOj2762V5+cWyR03HpAxQ7LM5Icj4pD1q7NhAzLS411wQaoMGbJGpk79WD78MCcppJn9/qwVtjjB5hb6zrRqmfVAoYwbli2jUjI7HLCayJINlTEw202qXHfdelmzOktIqeeWR7JsK2xxgA1LJXObuZUK96+0T6tk2u150v+89h2c2wOqrf87S7IB2sknLzbT/i5duldKSwPDIW45JNO2whZj2LBGku+EpLF1tS2tSVIBkAksDhY2yPvvVshN47Ml5cLYZHCON2xMWn/66UukR4/l8sorOyUzs9xMO2XT6CUTYO67KmxxgG392goZnZIld0/Ok3feKjcOzfYjUAGrKptl355aSV1cJtePzTFRBZczWYbj4NyR7XjBRkbl005bLJdcskIefXSrpKUdkuLiGmlubjlKqtt3T7a1whYH2N5ZUy79e6abiQyZaWburIOyZWOlVFYc6bsg6UqLG2XLpkqTxfmGsTkmYDUacxXEGjYXsrunfiyrVmZJRkaZAuapWwqbp0Ci3draQe2BvQKD2jgrM4nhPbfmyeLXSuTzHdXHTEqfm11nJqx/5L5AVEFHs37FCjasjEwphVvWtdeul+ef32nmdSMpbrTLsTtcT2GLM2xWHSTNwuhBmcaPcsO6CsnNrpemxsOtfToq7P59tSaq4M5JeeZYQI1kUDzasAEZFsbzzlsuo0atlfvu2yIff5wnlZX1Clkb9Ulha6NwotGaeiWbhY01g9uD+qSbzMxPP3FQdm6vltKSRmlsDEx+wf3r6lrMhBizHiyU68fkyOiUwIw84YzPRQs2IAvMdLNc+vdfKRMnvicbN+ZKXZIMSne0PihsnQibBQ9vEiyRBJ7On3dIiJPDUum13u1Iq5J778gLjM19mdcSkOx1gq2jAVsANNTGpTJq1Nvy5ptfGEnc0QqYTOcrbAkAG5AABMvQSzLlhqtyZOnCUjMs4FZGvFDwtWSogLkKUi4IGF2CQWb3dxQ2vD9OPHGRpKSslNde2yX5+ZXS0HDEuOM+o24fPZ7qlofCliCwWTBQLVERxw7JMhmaV60oM0MD7kcjzR65LVcuL5PJE3Ml5fyAVAQqex13HSlsDEqfeupiufDCVHnqqTRJSysyTsNqyg8OlPudvNsKW4LBBiSolWaij8syzRwEs2YUyofvVUh11ZGZQ00CotImM2D+2gvFct2YbJOSwZuAiOuFCxuD0sxEii/jAw9slg0bclWaRaGeKGxRKERvC+b+bstA4kofv20knLFA9s+UKZNy5ZXnis2EhgyC23ugWuKFQm7LOY8WmrnEOceFLlTYkGRnnLFE+vZ9U26//UNZtHCf7NtXqoPSUaojCluUCtJWfu+6I7BZAIGFsTbWD00vkNUrykwKBvpv7v0yM2plyeulct+deTLhimxjcEFKtgUbU/z27LnUhL706ZMqV131jsydmybbtxe1BsC699DtyFRIyk1h6wKwWehYD+qTIWOHZsnshwpl0weVZtorpJuFAPWSZEMvPn1IyG1J0CqSru+5x07zO378Wjn99MWC2jho0GqZNm2TbNx4QKqrG1qvZ6+r68ghs2WnsHUx2AAOFRFL5JjBWSZhLMYSVEt3qIAwFqIKHpqebyYIwV2M0B57zCefFMq4caSyWy6jR78ta9dmSkVFckRM28of77XC1gVhs5IOFdHMsjMgUxbOL5aK8qMjnvG3JNJgR1q1yWu5a0dNK2ybNxfIbbe9b9ISNDURjXBEOsa7EibL/RS2LgwbfbERAwILrl9MWcx84cWHGlvVQIAjAVFebr3xRrEVu6a6UQ4WVktlpaqMtkxivVbYujBsVsIBHdEBODgzkSNp0U0oT+kR6Mht6VYmIPQGtLr/6/bR5RWN8lDYugFsFjrWGENGpmSawe7n5hbJJ5srpabmyPhcNCqNXiMyEBW2bgYbwJm+3KWBqIJ7p+SZ4YC9u2uPUiMVmMiA6Ui5KWzdEDYr6eygOA7OxMblHWhoDeHpSKXRcyMDVWHrxrC1QjcwU84/db9s/+yI6V+BiQyYjpSbwpYksHmnjOpIpdFzIwNVYVPYjrJSKkiRgRRKuSlsCpvCFuM6YEFU2GJc0NFwRLZ9r0jXfo7ItgLoOnaSzFu2CpvCppItxnXAQqewxbigVbLFT3LYSp2oa4VNYVPJFuM6YOFX2GJc0CrZVLIpbDGGzBawwqaw2bqgki3G0ClsCpvCFmPIbAErbAqbrQsq2WIMncKmsClsMYbMFrDCprDZuqCSLcbQKWwKm8IWY8hsAStsCputCyrZYgydwqawKWwxhswWsMKmsNm6oJItxtBVVzcLE9hfeNp+kw4cD/xIvfcjPU+9/hMDeIUtxrCRGpycja+/VCK3Xp9rgCNvP0l5IoUn3PMUNoUtaRxgSflNtuIP1lfIk48flOvHZsuw/oG0c+GCE8nxCpvCljSwWZ2dddHBBlmxtEzuvzPfzDRDclV3eqdIYGrvHIVNYUtK2Cx4GftrzfzZN08ITEp/eb+AagkY7cET7v8Km8KW1LABXUvzYcncXydPPFIog/sEJJydTy1coNo6XmFT2JIeNoBjPjWGB3btrJYH7s43kx5iQGkLnnD/U9gUNoXtS0uonWmmsKBBPnqvUqbdlifD+2cay2W4YPkdr7ApbAqbz7ADk9Tv3VUry98olbsmHwg6Kb0fVMH2KWwKm8LmA5s1oJSWNMqWTZVmut7J1+ZIyoXpZoYawAkGVbD9CpvCprC1ARvQMX9aSXGjvLWyTGbeUyBXj8yS4f0zzBIMLL/9CpvCprC1A5uVchhRSg41yqsvFsuUSQfMlL1YLUP1QlHYFDaFLUTYLHSsGZ97avZBufqKbKNOIunaUy0VNoVNYYsANiyXTNnLUMHD9+ZLv57tOzgrbAqbwhYBbFbKNdS3SGlxo2zbWiXMLjqwd7oMvjjdV7VU2BQ2ha0DsAEdUq6utkXS99XK6tQyue2GXBnW79jxOYVNYVPYOgiblXJYLSsrmuXTLVXy6gvFZvJ6JrJnwTqpsClsCluUYLPQsT5U1GCCVWc/VCg3XJXTOije99z9sjNNp/l1yyre2xo8GoMKH++P6He//AP1xgtl6uQ8GT8iS/qcqXNq+5VTPPcpbN0UNiqRjRKf91SRDO+bJZ+n1QiBrPGsYHqvIyqswtaNYbMVnaECVMjysiaFrRO/t8LWiYVvYYjHurHxsBmfi8e99B5HpJlbFgpbksDmfnTd9och1uWisCls2oeLUx1Q2OJU0LFuNfX6nSOtwil3hU1hU8kWpzqgsMWpoMNpAfXYxJdSkXwjhU1hU8kWpzqgsMWpoCNpCfWc7iXhFDaFTSVbnOpARLAdPnxYGhoazMI2LXBzc7P53dTUFNbHKy8vl6qqKnO+tyXnWi0tLa3XY9vel7X7n/dc/d29pEJ3+J4RwZabmyu33nqrLFu2TCoqKgwMa9eulSeffFI2b97cCkcoBTRv3jx56qmnZOfOna3nAdGhQ4fkoYceko8++kgKCgpk5cqVMnnyZJk0aZJZnn32WSksLGw9J5R76TEKYGfWgYhgS0tLk5/97Gdy2223tVb4xx57TAYMGCDz5883UqqsrMz8h+RqbGw0ULDmN5DwP9Lw6quvlkGDBklqaqpUVlZKcXGxOT4/P1+uv/56eeutt8wycuRIOemkk2T8+PEyYcIEefTRR+XAgQOC9OOanFddXd0KH40A0o//6+vrzVJXV2fuwf35rzMLXu+dfOBHBBtS6F//+pdMmTJFsrOzpba2VmbPni0jRoyQ119/XXJycgTJg8R68cUXZceOHQYuznvppZfMf/wPcEirSy+9VO6++24D6nPPPSe7du0y/7HNOVz7vPPOk/vuu8+onKidSL7S0lLZtGmTuSb3Wr58uaSnpxv1csmSJQbgDz/8UGgckLiLFy+WV155RR5//HFZt26dlJSUKHBx6q9o4/I/iQi2zz//3EiZUaNGmQr+3nvvyY033iiDBw+Wl19+2ah8//jHP6RHjx5GAqJyrl+/XqZPny4/+tGPpHfv3sL/e/fulVtuuUX+9Kc/yS9+8Qv53e9+J3/84x/lzjvvlC+++EJOPPFEcz3UyYEDBxqQ3Y+2ZcsWI01///vfG/j/+c9/GniRZMcff7x873vfM1LzkUcekXHjxsk3vvEN+dvf/ia//e1v5T//+Y+sWbNGYVPY4lYHIoINyXPCCSfI1772NfnqV79qlv/7v/+Ts88+2/TjMJqgIlo18corr5Q5c+YYIE855RTZs2ePUe84zko2JA7SZ/To0Ua1zMvLM0ADbzDYkHiXX365gTArK8vADLSok8CGerpx40Yj2YANwHgmwAfMBQsWxK2g3UZCt5NPheSbRwQbqt3f//53039CjaOio+JR8YEDYwkVm+WHP/yh9O/f30i7t99+W/r27Su//vWv5Q9/+IOB7uabbzbqJwYQrosBhH5cKLA9/PDDctVVVxl1kX7YE088YSSkhY3/6ftt27ZNrr32WqOKKmzJWdEToYGLCDb6YKhjd911l7EUIqHmzp0rGDGo8KhtSJaFCxfKBRdcYNTL1atXm37Wxx9/bPpMSEWMH9ddd52RZqtWrTKwoY6OHTv2KNiQYD179hTABOz9+/eb9axZs+Syyy4zfUCkLVLSlWwYUbBkAhuSDQNLTU2N6bv95S9/UcmmKmRcNZuIYKNin3baaXL//fdL0aFD5oExZmApZP3888+bvtrQoUPlrLPOEtRIVLZFixYZsLBa/uY3v5HPPvtMbr/9drnmmmsEqcd1+T1x4sSjYMPIccMNN8jJJ59sVMOUlBRjNAFgLJMXXXSRsA8gOd/22VzJBsD0F8eMGWMkHBL2gw8+iGthJ0Lrqs/QeZI9ItiwBAIUhhEsg3xAwFmxYoXpH2FAodKzIH0w63/66aeC9GK4gAVphTXy3XffNSomVkTM9++88445jmEApCVSCdM+wM2YMcNIL67LGB9SC0hRYTHCYGWkP8g4HRL2/fffN6Z+rgGUqK4YX5CAWC4PHjyosKl0i1sdiAi29lpH1ErG1FjYtscDAVIHVc7uC2dNf4v+mPe6jJnV1dcHvSYNAf1AJB/Pw/25Vjj31mM7TyJ0l7KPCWyJVjhI2mnTphl1NtGeTZ8neSBOCtiQYniPJIvXCNLbuyjUnQ91UsBGRbOVr7tXOlRs+tH0c1lwW0N15/27+7sn+vslDWyJ/iE68nwARr8UQxGW3tNPP90MczDUgQWXvirOAhicMjMzFbpOMgpFBBu+kAxA43MYqwWrIqpfRyphMpxbVFRkrLCMZ+Lq9t3vflfw5jnuuOPM8pWvfEW+/vWvm2GPfv36GV/SZCiXRHzHiGDD+RjrHh4jsVhwaJ45c6aa5ttpgXGkZvwS1zMXMAuad92nTx/jvpaIFTEZniki2JBqOA+H8oG9HzyU37TEDFKryhO8U88wCn6fDOiHUqYcw4D+9u3bVVtopxGLFfgRwWYdkXFCDvVDh3McsCExcc2K1Yt39euiYhO+5Feu3/nOd8wAvu2zsUb6PfDAA5KRkaFl2tVgw8k4lrDh6qWwBZdsuMnh++kHG0YRIiXwQ926dauJdn/jjTfMNhbKrt7QdNXnj0iy4YhMTFgs1UgcjLUVDg4bZUPwrh9sSDA8bexwh7vuqhW1Ozx3RLDhU4gfIr6KOCN7Fz42Let///tf+fa3v31UhcBahnMyTsLBzn/wwQdNxx/fye5QyLF4BwJv8fH0wvatb33LmPjp08XivnrN4A1ge2UTEWx4YhAnRg4Qkv94F/ZjscTU/P3vf/+oCvHTn/7UhLtwTlvn4+wcbqau9l62O/3P0IgfbPTXSBHRnd61u7xLRLCF8vIMtBIpTfCo2/r+/Oc/N3Fp4YLE8TgQM8YXyv0T+RjrPoaRI1KH6FjCZh3GKetwv1NnlLstz0jc8axjfCTnhvuuCQkbH5twm08++cQEetJSYwxAvWT8jfAcQnyICCdXiQ3z8Xt53JU4Bg8LQm1Yk7uEZEG2orO2yYO4NuNX9HMwJuzbt6/1XM4nVIjwH+v+xLk8K+FGhPXwH89BRSUECMstJvqlS5caicP1yUSGms3CNue98MILJl0DfbFgDQqqI8/AQogQ45FuQ8Y2llxCmOz72uN5bgbAaQTdcuI9gJ5rE8xLakHColDzKWvKnWcmURPhT4RC0R90r+Fu8/4c496fbboEVrVlzXfBeEP6Q5uS0C1vzuGZuZZbHsDB8QxhkEOG56VLQ1kStEw85YYNG8x3sPfj+Wg0uD51gW/16quvmlQdvCf1inckFIxkVe77RHM7oWCzH4FUC7gW4WJEFi9UI2+l+vGPf2wSBxHbRsULZrncvXu3qcyMMRFAykIlJd8JHxGwuB8ffcjQoYLHBV4xfBzGE6l47rkEwgKQ/egEoPKhUJmp6IwN8h6c+8wzz8hNN91kItWJXPd6d9h3wqpLasCLL77YRL8Tq8d1bGNgPziVCmcCUkGgNfz73/8+ply45qmnnnrUM/POPLethPZ6vD/vQkQ9KikZzFDz7XO561/+8pdmTA+jDJZNGzdor2XXwMF7u2XGNmVMmQEdkAHFFVdcIfQxiTukvHkWytKeyzPjgkYDxHcCPjKk0QBQDiSU+slPfnKUVZwAYbK10XgBFwvPStwjGd2oL3wrYhv5XvYdeQ6suMDH/bxlb9+vI+uEgY0WFulC63LOOeccVRC2QIKtSdFw7733mn6ktzCAatiwYa2Faq9BwdPq02Kff/75R/1PpaQiEtjKh7Hn2DWVk3NpEM4888zW//l4QIb0IIERyY3sOeGsydFyzz33HNOAkL3Mq5aHc11yelqjE9IJCU9QbbhW5V/96lcmup6GzJUelD0NFSkovM+F9MaKTdkRJe/+vzw11WgnJOQdMmTIUf/RCAEO3+mSSy4xcLrnBtvmW6SuWGHgJP8MaTCCHevu534EGAOp1V68dSrS3wkDGzozrRatv/vyoW5TSLR23haJ1pDcKN7rUHFJWuTdz2/SLaCakoWLZEXeY7jeX//612P2k1eFsS3UMlQuWljvuaH+/sEPfmCiz933odGg5Q71Gt7j0ACADEBQpS688MKIr8W7kmoQddAFLhhsDOUwuO59Jn4DIEWU1sgAAApbSURBVNfxg83v+FjvIwUiaiySOFKw/M5LGNhQx/ggqHGRFCatMwPtJF91K2gw2FAbqDB+93rttdeMBAgGG8MZfueyD3UFUJFw5NX0u34o+ygHYHDzpHRUsvE+Vl1Dvf3mN78Z8fPxDjQIqHqoeLZyBYON8nbVNrcM6H/T700U2Pi+9AWtFmDfraPrhIANSYCaEazVJrkQfYWnn37adGqpKHxo94Oxzfn0x7ieLZhgsHnPdX/TJ8C4EQw291h3m74XqfxQh+lok7gIlZAEs0hdDBf0CVA/WeiYkyQpWIuP/yljmPZdMKagotEHAzwaF/f+dpu+BxBwbY6nb8SCEQTViHuThcwe764ZqiH/J6oX5UwyJsZF/TQO3pc+npXmPGcw2Nx7eLcpB8orUWAjmS8JphiasmUfjXVCwEaHlLz+3o/Ab1Qn1B863oy9YYmiw0ufy6vK8fHZRytpVZtQYaPlxeAwdepU0x9jmCFU2FA7qJBUGvoxwM75WFPpN9A3QtJhCeMD4hTAQgVjP+ozITJ8ZLcMaGExhFgLImWAFW77jh3y5ptv+qrHXOOOO+4wx3Ft+kkAwILERQqREtC9j90mDo53oM9KKgnKmWvwG+j91G40ChLwYukMBzakKo0F5U058WyhwAbcGJIwdGAwwhhD+kMybNv38FtjZEPtpY+KlZX6Q6Nqkw275yCB6TtG2xE+IWAjcxaVyn1htkkrjj7Ph/C2LJiYUTu9lko+BlYtO24SCmwAygfDHMxgvK3c7cFGhUEqkdmLBoGGwFVhvc8c7DeSEGkDtN4ywELoZ2oHhEgGtYHHrw/LfTGfB2vNcUJAOnutlai7WEdpCEKFje/qlrf9Vm3BBphIawBBVed+qHk0aryTnxGMdyLGjwgSoGYeChodGgZriaZh4nnccqc7gBHHvlOw7xbu/oSAjYpKNLH7wmzTgiEVgr0UahlqmnseQwL0cyhMzmsLNtQ0LFyoZ35DB23BhgUUZ2l0e7I3B3vGUPZTYTBY+KnRlAvGA+91IoUNMzvR3G6ZsY2BiWfw3sf9jVXQq/ICG1IdacuxbamRzOVATB1uejRq7rXZDgYbqi2SzA65eM8DVr+Gh/dCkiGZsS56z+M3wxiuRZlzgI3nJBmw3zmR7ksI2AgVQcR7KwCiHNM9LTvSzV2ooPR/vKoNFRZLoJUGbcGGXs4HDFZ4wWBDVSMbdLRaPqxeWL9oKLxlEG3YMCDRwHjvQz+NZwhWFuxHovhZMIHINoptwUZfk/+D3SMYbJjtaZCDndcWbO5wh9/5jGny7m55JCVsDFpiqaJlAiB3oYWmn+dVAcKBrb2JNYLBxgAv3hZ+H89vH0YJ1EvUU7+FhoG+WDxgoyz9xg5DgQ2Nwe9cGjwaNd69Ldjo2/mVj90XDDYGoPHAscd5123BRkOOmu49x/5W2L7Mn4HBg34Rxgu/hY6sd6ggEWFDcqGmomoZAwdGDmfBQEB/ws/CGm3JprAd7bWvsH0JmyvaQ91OJNjoy+EGhvsU1jIMMX4LalKw+ECF7TjjWqWSrY3wctSlUL3+g/XZQgXMPS5RYKNzjV8fkCGh3WcMZ1thU9iC6sBWF0522Bik9xpvwoHMHquwKWxxgQ3zOol/sBqGumAixlPCjt20ZY2MlYEEM/Pw4cN9pRlTZeGgjLM1Rgm7xhqLFcxCZtcKm8IWF9iosG2Ziq0UbWvdGbAxnOD1bMeQw6C1HcwlusEu9EfwhvAb1I4XbIyVWYtisPLEuOI3bPDnP//ZeIFwnlojjzbAuGWZEONsjIXgz2dbc7vG/49QFveBw93uDNiI3fKG7WA5ZUDYzwUIKQyg8TD9M3DtF8mA2xI+jm2FlTDWxXCM/T52rbAFB8ytrwkBG2NWeIvYj2fX+OoxnuY+cFvbfhWlM2BjfnAkhX0P1vg54gxM7hbvOwAbvojxgI2ocdyX3Gez2/hbEhXgfT5+U7ZMu4XV1B7PGomNIQzVneNUsgUHLyFgw0uEvpn7EdlmjI1Qdxs271cJ7D4GLvGRc1MW8F9nwIZkw7HYfR+8Tuif+bkp4RkDoH6BodFWI7Nzcownv/tsdhsIbdS0LVe7pkE899xzj7Gs4ohMsCW+kxyrsCU4bIxHBfNtw3+RuDAcdZlGGHcjliVLlhjvkunTp5uwGioClQWnZtcZuDNgo8J5JTUSgEFr/AJ5Rga16QORX4X3I21CPAwkDLDj2e83gM6wCekHcauiD0nqAqyqlCv7vZnSgBTYaChs7hWFLcFhowLgcR8spwbqFf9hvcMLnuWMM84w/pR4dVvDAq5bVF6GHWyL3BmwEQqEk7KVGO6a4QCkHgaU3r17G8io5O4x7na0JRvlQr+NiAn3Pu42z8P4IP04csDgveP11OF4Ii5w2HXzpShsCQ4bFYBYL9QRb8iMWwna2yb5C17e7vzanQEbkhXpgU9fe8/c3v+xgI3QFIxSfs7f7T2P/R+1mPNJIWEjLFSNDA4aZRPTPhsRyl7Vg1AOzN/ejjgVFDAw9yOtIvG6IJqYltb9+GRy8kv5RqVpb5wtWMIfWv5Vq1a1Sk8K0rvgQU+UtF8/zFZYu0ZyUHFRJTGk2P2sw4UNCHD4tcGz3ueyv+k7oiIy5ucntdxn8G6jafTq1cuEJtnr2XVHJFuwuEbGJgmFsffwrjEwBeuGtOeITHfEa8xCnSe6AQHgvVdHfscUNpuKjhbeLpi/CU/xwsZLUEHov+HmhD8hJmXC9wGWCklFsgsSkEpPPBu+hQQXYoAgChm11BYKlZ7oAHt/d00f0B7nt+bjk1bNPYdtGgPCTfzOcfeR15D+DuotfST77LwLz05oCmoaDQSShrQPxFa598NwZPtD7rWtO5h7rH02+lp+5euezzaD75jzsfoyyw2WRp6LsrXPyprfaA32eeljBot6wEhFnKHfc5FxzPsM7m+GHkjl4D2XOsOYpHusuw1sRJJ7z+P3okWL2swlQh1AKLjnUu/oBvgN07j3DXc7ZrABDklU8WankO1C5DWVuK2W10JHRSDClv4F8NGHsAsGEWAmcpcOOuNUfhHd5BJBQtn7u+v2ChPwMca457DNOwSLaPZ+AI4j6JIxQyQXCzlViDompB9JQGWx70ylcu9HpXYbD3t9rK9YPd1j2UZak1jWHhfqmsgDJCLGEcbSbDkjcflNLhIaA56XWMJg1yUKGoum97kos/YkBRZNGjG/c0mdEeye9NGJp/Oex2/gt7GNfucThAtw7rk0fHyHYAGnftcJZV/MYOPmFAIVxbuE0upS+aiEfFhadqKV3YV9wEW+D45DDfUbZ+M6wZ7DtVr6FVZb5/Kf3znefRzH+/Os9vndZ6cs7HNzLO/ilhfPbv93r82xnOsea7fbey/3Onaba1GWVExvefOb/fzvPq89113zXLEo7/beqa2y8Cs/+8xc11vmlCP72jrPnh/OOqawhfMgeuyx/T4tk+5VJgqbj3FDK3n3quSJ8j0VNoUtJHU4USpsV34OhU1hU9jiVAcUtjgVdFdukfXZo6NWK2wKm0q2ONWB/wfsQjZUj5eMewAAAABJRU5ErkJggg==;" vertex="1" parent="35">
                    <mxGeometry x="383" y="45" width="79.02" height="70" as="geometry"/>
                </mxCell>
                <mxCell id="45" value="" style="shape=image;verticalLabelPosition=bottom;labelBackgroundColor=#ffffff;verticalAlign=top;aspect=fixed;imageAspect=0;image=data:image/png,iVBORw0KGgoAAAANSUhEUgAAAOwAAAC1CAYAAABcUhMrAAAgAElEQVR4Ae196XdUVfa2/877a2V2wBa1RVu0FXvQbrtte3RASAgQZhkFZFgiKAKKCA4ouEBQRJIaMidUVookEEImEpKQaWWeKx+fdz373FN1K6kqKgM2tzwf7rqV1L23ztl7P/vZZ599zr1nerIb5jAyMDbgDBu4xyjKGYoyejJ6og0YwJoIw0RYDrIBA1gHKcuwrGFZA1gDWMOwDrIBA1gHKcswrGFYA1gDWMOwDrIBA1gHKcswrGFYA1gDWMOwDrIBA1gHKcswrGFYA1gDWMOwDrIBA1gHKcswrGFYA1gDWMOwDrIBA1gHKcswrGFYA1gDWMOwDrIBA1gHKcswrGFYA1gDWMOwDrIBA1gHKcswrGFYA1gDWMOwDrIBA1gHKcswrGFYA1gDWMOwDrIBA1gHKcswrGFYA1gDWMOwDrIBA1gHKcswrGFYA1gDWMOwDrIBA1gHKcswrGFYA1gDWMOwDrIBA1gHKcswrGFYA1gDWMOwDrIBA1gHKcswrGFYA1gDWMOwDrIBA1gHKcswrGFYA1gDWMOwDrIBA1gHKcswrGFYA1gDWMOwDrIBA1gHKcswrGFYA1gDWMOwDrIBA1gHKcswrGFYA1gDWMOwDrIBA1gHKcswrGFYA1gDWMOwDrIBA1gHKcswrGFYA1gDWMOwDrIBA1gHKcswrGFYA1gDWMOwDrIBA1gHKcswrGFYA1gDWMOwDrIBA1gHKcswrGFYA1gDWMOwDrIBA1gHKcswrGFYA1gDWMOwDrIBA1gHKcswrGFYA1gDWMOwDrIBA1gHKcswrGFYA1gDWMOwDrIBA1gHKcswrGFYA1gDWMOwDrIBA1gHKcswrGFYhwHWZdjAOJhftA04DLBpNmV5MD2Zh/G6Rga/HBtwEGC9mJ7sxfQkF2bwvNSA1QD1lwNUrWsHAdaNe99040+7CvDyHh8eWZuF6ckmRNaKNOdfBngdA9gZyR68dsCPM/n1eHGvDzNTyLiGZQ1QfxlA1Xq+ywHrkhD4gdQMJH9aDH91G05k1eKpLTmYnkRFGcBqRZrzLwO4dxFgdXgbAuG0JW78ek0WUj8vha+iDR09/XjjaAnuT/Vi2hIFZo5p5UhONwA2CbiET0LeRYANeUgNxic252LzqXIUVbejf3AY2dda8djmPAEmr3loVQae2pyLuasyMH0JM8ghsBvGCcnTyCJxZHEXAFYzK8ekbkxPSsOMJDee3JKD936sQG1rDwIjAbR2DWDliauYsywD05M8uO8tF/68x4d9P1TijYN+3PsmGTZxFGP6YnQZyQb+x4C1g5WAVeHtc9sL8HXOTbR29mNkJIDBoSGU1HdizmpmhglqN6a95ULq8SuoaOzC6YJ6zJQpH8OwkZRs/pc44L8LAEvQujBtSTqmvZWG57bnIuNqC3r6hwSsBGxTRx8++qkS096yBJ/kwtzVXuy/UIXAyAhutPRg0UE/pnNca6Z6TKSRwJHWzwxYj5UgIvD0tAzB6sLMZA/+/r4PpTc70TswiOFAQEJhAvZSTQfmbmBmmIBUCad/flCEjNJmATXBnV3WillLMzA9WVdDkW014+pzInhaW79EHkqW0xa7cN+iNOtIx31vcYhg77dxZokQafyMgCVYaVx2I/Jg2hIPHl6VhY0nylBW34n+QTLrsICV7Nna1Y9jmXXWGJVg9Mr4ddOpa6hr7cXIyAiGhwNo6xpA6vFS3L+Cz0y3OYbRv5kIoGUfCEDKksMIN17ZV4jVx0uQ+lmxHIw47n3jok3eWu68L1Fk8Mvrx88IWI49FUOKoSW5MG2xG09uysees5Uov9kp4GOCSQF2WNiTGeI3DtH4CFZlbA+uzMBnGXXoGySwR+S6oeFh+Gs6MH9TjgKsGCWNVBtqoilX9YtM+tyOfJzMrcfVug5cuaEOT0kzHl3LBJ0ld3GWGuiJJotfTn9+XsBqEDFptMSFZ3cU4MOfalDd1C0gHQmMYHhkBIERBdbO3kF8kVmHh1dmgCGfhMOL0/H3/UUSAhPc+iDIh4YDWPPVVcxdlTmKzRMRtKpP0xanY+upMlTd6hLHxSGERCad/VjzRSlmLfWA1yhnadjV6dHFzwhYGpgq3qcRPb/zEo54a9HYzrDWGq8GCFbFsPzflbpOrPz8Cu5902JXiyXe+74KdS2h+xTLEuQjKChvw8t7C8FSxpBy7J8TxRuzTy7MXubFucJGdPYyo86IQw0nevuH4C5uFucl89omDLbZg3Nt4OcFbJIHM5Pd+MteH77z3ZK5VQ1WAV2A4S2BN4yBoWGcymvA77YV4D4rO8zw76F1WThdeAtdfaEsMplZ3TeCweEAdp+rwKPrmaTSQNVn5yoq5HxsfViSjoU78nG1vkscHRN1w4FhBAJDEm20dPZjwbY8zLDGuYk7PLDJJMEd0x0CrFUEIcJTSRGCh8z6pz0++Kra0SfJJbIpwWY/VDhc29orhRLKUAk4Fkuk49V9PhTf6AiGf+H3qucUVbfhjcOc5tHj5kQKBZUsJMx9Kw17z5Sjqb1P5MGEXVf/kIzttQPbcOKKVIQplk0kOfxyQGp31ncIsBQmjSNkXLOS3Vh+tBjNnQPi/dVY1Q5U67Ow5QhO5dzE89vz1fSEJKtc+L//XMSRtCo0dzAcVsAeC9hhYZmvsmrx9BZ7AiqRFKwKTOakelFQ2Y7eASWLquYucYYNbQSwkqevohXPbs+zxvTagSWSLH5ZfblDgLXmWyUT7MKj63Kw68x1NLT3Ymh4MBj2MhzWhmU/t3UPIOXrcsxJzQIXACjguzBzRQayyprR1z8oiRU1dh0Fegvw5Y1dWHOiTCVcrOyy3VM5+nOSS6KV1w/6pRosEFCA/bHoFj74oQL+qrbgEIGJu8VHinH/Ch31JOjwIMFDYW2vdwaweioh2YXn3i3A4bQa1LawJjiUFFHJpVFgs1jBXdqMP+wpDBuDchz2rw8LcaO5O6yowg509VklrXoHhnDOd0vGeKqIIHE8McPbuSu9OJFxQ4pMGG0wQ773QhX+tOcSjrlrrETeiEQbBy9UY/5GRhsmJNaG79TzFANWeW9VuODGn/b6cDyzFjdbe4KZYLKiBmvoc4hpaXgs8n9oVabFrgzj0jF7qRtfeGpkiV2k+zRw9TQPzzdaurH7bIVU/4QU5DSGiQyy+e/k4UptBwaHyK7DuNnWi+VfXMH9KzOw5HgpyKyBEZWY81W046/vF04AsCr0JtAF7ByaMGqy/o7nLNNJ1j16Hj2kC9vzOG1nDX3Glxyz7pNoLt3qY2SZ6UiN7ZD+6CWaws7aLqyzFR1yOpH5gtDUGL/X1+roT5/TVSbadq+9/+pZWpb6Hj4rWnvHkswUAtbWkaVevPyBH6fy69HcoRIiCkiaURVANbj0eDQQCOBaQ6fMzyoDIVg5Z5uOh9dloay+Qyqh9H08a6Dqs/4dnpmEybrGMVy+LbS2C3usQELGdLd8N0qZSS48sDITbx0rRUevKuHk0CLtcpNk3ym3hXt8KLvJxNyQDB06egax4ZsyPMCwOFhAcbv+uWQbnic2ZGP+RtuxKSf8b/t3kT5b1//m7Ww1P27LbcxI8eDhtZmYvyFHjsfezsIcCd3j1ZEL05e68cCqDCmYmW+19cFVXsxMidK/JJesp35sXZZEHSy0mbc+GzOWZSrgiHw8eGJTDl7e68O/PigCy2C5Muz+FSx9tdl5EOjUEYGogP3wqgy8sKMA//zAjzc/8WPJ0WIs+bQY/z3kx9/eL8STm3IwK8WtaguCMxmj9BwlxJ8CwKrGiqFbXu65PT78VNyMrt6BMGbVoAqddeGDYonB4WHs+uE65q7m2NXyvotdmLnUi78c8KNngAklfY8qEAg9SzkDBWIN5ABudfThoKsW00QwupY5PuHcfeBVSv7t5jzZKkflAJQcdp+5jl+vysB9i9Lx+IYsfOG9Ic5MRSMjOJVdh4Xb8qwClCjGbDeSJBeWflqC/ecqcOhCFQ5O8mD7aPjCVDIf78bcdVlI+bwk+Owdp69h4fZ8G9Perp0uPLA6E69+5LeeUSnnV/f78MBKa/VXWJ8ov3Qs3FmAraeuBX93LSO6tWrI8OBKL156vwj7f6xCRkkT/JWt8F1vxY++Jvxue75MS461C9pqOuauzMQfdhVg6zdX8V1evWy6cL2hE7XN3aht7kLpzQ4p+DmUVo03D/vFyczkZoJB0N6uv25MErB2w1fAnfZmOk7n1aK9Sy2N04yn5ko1w2pwMTxWIfLw8BBaO3sxb3O2UpjFBBTwY+sy8XXGDakZJhurZxKUGpih58rzJPGkgD0UCKCypQePb8vHDCpPwq7bC2asUu6Sexa78Nf3fKhtsarDRkaEaf/1gR+/ej1NDHL2Mg9e2eeTcFk5sBFcrmnH4k8uxwlYF6YvTsep/Jto71ZON5KsRzvLyH8rPVTc6sbWb69ZRTCq+mrhuzlwlzZZegxIfiL1iF+WTsYVJia58MyWXHzhoXOiLXAIMIIPz1fi0XVZEXTtleHRsqPFuCqlsMqGCiva8PutOZi91INlnxXjemOXEIN6pkrotXYO4NUPCzGTEUIwdKdNeDBjqRvz1uaAU2ildR1Rpiz5HNqpsl8OYY5n1uGFXZcsJxAfmUwSsKrBUsGU7MHMpW48v6MA9W29AkQ1dRMZWCHl8vthqdQ5k3cDnP6RzLAAVo0fFmzOxfWGDkg2lGC0H2FzuCEHEAI1nz2AU9n1eDBVe93RYc1dAkY7G0T6zHA4NQNkBDWMUEZwwd8IriHmon5l6C48si4Lda09spaYhtfd24+d58qtsM/uaCP13YVpiy7iqKcaLL6g3IMHHSyjnBiH6NbK1hNE/YODOOu7hWffyQ9WuzGC4rSdq7jFMmQCtgsKsJHaNPZ/DEEXbMnFce8NSWjS3vjbe89cwyNrWJ46tp+MQDRgdfRBwL68swCvfehHS+eAelYgADp7iegCIwgBVpXV6rEpz49vyMap3JvoG1AzILQ93seIkTul9A2og8VALGzRuuOqtPzyVrz8br44UokqbzOenQLAWqErt2xZmYG0y7dkLasSBsdQw1Z9cIgFQ2BV/2Pnalp68K99RQJ67QDE+FK8+NOHxcG5W93ZqB6f5Y1WiaMGLY2tu38IDJVmLXUuyzJp8Yddl/C9r9FiFCXbbd+W4ZG1NgNNcuPB1Ax8m1OPrj4aEQE2jJ/8t/Di7ktWWDoWAKGoggzrwlFvNRo7+tDZ04e2zm45M/vOz9GOjq5e9A+RVYeVY2W5aEUbFn1M5tRLH73ShufezYeLSyQDAbmWMwAEbLzrmsMBaznykeHogE3iEsQQYLXjL6rqQNLhYhTXdkqFHW2so2cAjAquNXTLijENWGU/ZEO3OEgOT77JrhOw0o61fbJWwFPajI8uVOHdk1flOJVTi6pbHegfsIaKgRF09Q7Be7UVD67PtkonxzqZkF4mHRKr5AANaXaKF68fLJLspGo4wajYleAdDVL+rUAdkHsuXG7BrOAaWcWAZNr5m3NxyB0aj6nn8LmRnzn2/0qIBPEZXwOe2JhrhYWxBWMX0v/2M2XBtrpw3+J0LPqkGFW3GA4rluPywz/uvqTCfRsrM6nxzw98MoZXRqQSeutOXJXQWTlFglbpcGwfXZi3LgtPb87Fgk25eHpTjpyf2aw+8+/gsTEHT2/MwTPb8rDo82IQtHQQ1MWt9l5s/vaa2jhPGE8ZO4c6QcBadjJpwIpNBKIDltVyi9KCDKtthfI8klYjFWIDQwEccdXgb+/58OSGHDy5IRvPb8vHvz4qxG+35FmEohKh89ZmYvu35bK0U5GDCne/990C58gffzsLD6/OwIMrvHI8siYDz+wuwJGsm2ju6JehHVmc2x/t/r4SD6bqRSvRnekkGdZSdpILT2/Lh9daUK4FEd85gOuNnVhxvES8n92AGCL8dX8h/FKKGC9AI1wnni+Als4+rPmyTGUrHTMnqRZMkE0Y0u86WwGyHEHIkIvL6H7ztl7cb1e0C7OT3SisZmadhjQi9ddHM+qsqQ/tCGKANjg9obKfBFmkg6zFY8H2fJz0NUoITIbt6esHEyy/3ZIbPt2ik5PCsAyJlWOfGsDGCokJWBvDWqTR2TeEylvdAth3v6vA0wRmMsfZHJK5hPHJrLOXMzJQjp7PISg5c6Gz8dTJp54beHGPD3OWWfcvUeBWclP3PrklF4fTOUXJ8Dsg0SPZ/Ekm3MTpRieTSQNWb0W68VQZuvsYAo+H/UbQ0z+IH4oa8eh6q6rJGrtybDBnuQerT1xBZ69KJsTnACIDVrUrAHdJK/642+cwllXZTS6aYFgr7DrCMH8QO74tx0MrbeFwkGVd+NVrafjMdQMtljenDDjNxSypGi9pgBO80ZhWXxP9TGN8YmMO9v5YJQkwFVENI/1yE156z6eMXyrWVKRA3fIexbD/W8BSlhxXdvQO4IK/CY/yjRLSVrsjs+ZOOXVDp7XEJdcd+qnaGpNyscUwLlW0ypCFYA9Nn9nlSudr1cTvL0ROWWvQWbH+YPmXV/DQak4d3THAqk69vK8Q+WVqu5bxArbyVhfe+faaBaDQfsP0ZAveycPxjNpxhL8RwCoORI31qBxmPbecKrfWzEYXzNgQMbrB3tFrdRiZ7AadIqcI2A8WTHAvq98zyxjlPUOs8OKOksyIMknE+3j/nu8o73SVAAoCfKL9c+GBFR6s/fIKrjeoNblDgWHUt3Yj6UixJMmU8WpG19N1/3vAqiEZq8QGUNHUhb8fsMbP1lyscmJ2wKlMLmVHds2/pgBHwLd29WHpcZaA0nnqe7R9MdnJg//3YFqSG/PW52DP99yTTA3ZSEYns2/iqc2x698nwLC6ESp5M3d9Nt45V4GePhZI6AzYWOAor8v/K8NhA7kU7ry/CQvfZYaTBqQEQgVzN4rXD11GUVX7JAGrflMzLNuYc60V/zrgD4Y3dxRwkwaEKh6Zuz4LH2fWCqtShkwmXfQ3xiw0IBMwW5pW0mJNNQyju28AP/rrJXpR8p4oUHmfYhwm8zwlanqGY9eu3n4c+KkKD0um1tKrGKs1JXKXMKwGbHdfP9JKmjFjmbUrp7RVy0UDjX9b9pnswo5zlTIOpS76Bobgq27D/alKV8qeiBP23bov+EzKgGGyB699XBJcuMHn5Ja34vnteZgmWNC/H34eP2DtqfIlbiz6uBiFwWLzyIClYCTlLql+fU1AqqDePVehQgA+N/hsL2Yt82LzmevWVqcqgTHhkFiSEfoZTLcHsP+nahmTiDcMspj2jOFC+t8CWo2F/v2hH7nX2qxEHZM5fdjy9RVrbjlKu5PS8avXL+KDC9VoaGN5qCpV5MKIF/cUWPLmvTTKePsccth0CHwLwxFPNXr71bw7jbewsgX3r9TGz+cqZpFQz9Lz3RESK/Lg8sTDP1XJarBwdgz1VeRjtX3Oqkwcza23Zj+4n1ifTIHNsMoYlSwtoItt6eeEHBb30f7b3kKpsVd2PYyG9j68tNtnkVdkfYwDsEqxauyjjIhjp089KmQNglJYNpxhlSfT1B8CbGZJM/65jw1kh0JGd98ilxTtn/M1xGTtyQD4ck0Hlh+zEl2WIuI32sjCvCP3J7lw75suHLh4Q7Z7pSemPMtvdUvWMvoUCGV6Ue797/5CXCpvDYKdmeXjmTWYvoQb1vE6bVC36xcZg1MzNEYWIaRj7/lK3JTN8FSBRFVTt+x+qZzv6OeGDPbuAKyyUxZKpB4vURv9hQFMy0OTiZqOenZHnkSG2v7qW3ux4rMSzOIm93E6PkaQf37Ph5IbDKvZDpUYfPX9wqkCrKZ7pSxu2/L21xy3cPM0pSw1ca2ZLBJodcMC4p22n7lujb8sDyzC8kg1zKrjJbha2xE0Mi2cqTpzA7dvLzXg4TUqC6sEHXIa8Qr+Tl9Hw35mQza8pS3glANl3dLRK6WH972eJqzwf/+9iIjHfy7i//37ImalpONjT01wTpZ9L6xpx4PrcsbJrtqAqSM3Fh324/KNDslWs11ckfXedxWYwTFcLMO/q0LiAC7faMff9mpmi2QDIUdDJ/WfA0XICzpAVSDBaZqalm5Uy9GD6pbYR1Vzjyw37R/st0WfI5hCwGovoyo9nt6cg/NFjRK/c3yojmhZ4hCg1XUj8Fd34N8H/Nb2L3rsSo+stj7dd6EarZ1q4cBUgXT0c8obOrH+xBXbInltkHfLWe01zHK5a/UdVh31iMxb+6vbccxzI67jU28tfFWt4FiN8uc8OSuYOKc7O8XaWTFOZqB+Ziz14Hdb85Hub5TVUwQry0o/z6rBoxuyLdaObfh3E8MWVbbhD9s49ZRuG5ZFsgFOC7mw7GgJGKHZI0e1MopkRacaTlbR/1YOWGOC9wpgFzGSifT74yqc0IDl2Y0dZ8qt3Q71j5LSFa1HaiCzlLpUkSnsD3+qxvxNen6OjdMKJmDdSP3iCkqFYQn2eAUwnusC6O4bhLukGU9xa1TJmo4O4SILLZowp/7/CrBf596ULKSSr/LoXX39aOvi0Wed9d+jz30CTpZnDg5xyZ2SJ8vlWE43NzVz3FNcD3CbWfcN2fmDNeB0AK6SZvx1n0+BVdg1kuxCTHVnAKvAEr00cfQ8rLJdliYulFeYUv+xbMAr2+2u+eIKrtSpbYqUTjgnPiSRxnBgREoamSeJ/+D9itSmELBWSMz6zW358iY5TuArMGnQxgCMbUdETpD/9yO/7JoQEhABq0DLcRUXXO/7sUrW0ipPxmcrhfAc+l+M34wJdNXmxvY+7P6uHNMXawPTjkP/HUuB+pqpONt/RxuOC4+vz0KxrHtVZZ4EXHg2Xsskmhz096H7+Aw6zZrmbizcUWAZqf33dX/C/0dHOmeZF4s/LUZDa68YGXVx9WaH1DfPWR7n8r3bhcRSnBD+25GcoS5N/NzDWmLdv/EUTvCeADRghWFvB9g307D681ILsCofQ2fIOdxPvTdk03vumc0ClfEexzNvYsHWPCtC0ToIP48j6aRunJniwQfnmdLuGx9orDpLzlmdzK7DU9wBQVgtvEFaMZyH5QbZn3lrpXRLOQbWpypPpJkiEpvH9z+lLFYBldzowDNb88PH0zokicoWkdut2z/+Mw1UOy01Uc+VISuPF+NWu8rwss8slmC5X2NrzzgOdT3Hvj1WbTENlV59/Qmr8ut2/UxyywvHXtx1SQrWpfh/ZATczmffD1XgeleVwFI5juj9V8OfMIa1FnPUNvdg1WfFslIo5Mijy3nygFVOTgNWphYjjr11G1Sibam8XDy0ESCTbilHisFSRS664PraeesmdsxaRhuI7qzGAVgXCNYFu32oae7E0LAaryogRfPu+v/K+3GOjgp+6/BlNaGuQRF2toxW5mJdeP7dS/iusDFYlK2yaQyvFcvGB07dDvuZ4bvqA6utPnXVyOKF0CQ/Iwo9DNAKu9NnDVg1jp+z1I0fChvQ1cdiccWwLNM8nF6Njy5cH8dRiY8uVOCLjBr4Krnfk2ajAH4q4iqaaF6d4FNyYFaTQ5iP06qD97N444fLzVK8wWSMAin7YN0XplctO2WQBOzvtufJ/KfoMDAi2WYuUePSvlhGq50BAcu2f5VZN0GGVfYQP2BZ8J8ui9pzpWhC3U/AJh+5LFl3sR8WXmjbGddZyyj6OX7AJrnxyJpsnM6rl+VC4wtJlYFweVHmlWYpQwwDxhjF2jxMkgu/e7cAlU1d4HhJhYMci0UfL8cDYtV+1S6OwfiGvGekljM0zgoKfUz7ogtUG9P4z7rPNGj1fK6x7OvXWfdhKX7Ye75apmoIkNsffDmWvi4Nc1I8WPtVWXBdMWXJV3q+srcwRhGJAiDnxZM/L5Wx9MiIWkbGLXhePFCM6SkEqG5/LNnwGh5eTEtyYf6mbPzoZ8GFMnyG2Tu/LYsfsIvT8efdPvxUqNfUKlnFP4YdD2BV5MDI75mteTgvv6nuZwJv3/lKzKCj0hslBKMlyi/eg78R0r+2A/s5TsCyrtcr1UFcpqZWYow3I6aym8mf+KUw+rYKtjwTPfHsFA/++1Ehmtu7Qsyu18TGHKcqgWqDCD+r0JqJMEmGBQL4KqMO8zeSbbSH19MTsYxwKr+zDDrJJas73v7qmjWVo8ZKxbXtSD5aLJnKoDOJ5cFF+crQaAjMcP59byHqbdugchXTzjMVmMca2oigU3O1rx/yo7CyTZU4Wq9U2XaqDA+v5t5b2iApi3hkpgD76zVZsqG81gudB9fg3sf3KLFft3GUXHnz2sEiyYDTAetpRdl9I+J62NFJp/EAln1TU4Bs9zd5DVb+Zhi9/X0g487m2xN1WWIsvcT6LqIOQjYWA7BUtFIAkw3PbCvAef8tBAKDEo7qEC1iSCwJJrWThE6QcHEvK6J+Lev+tKcNNSS6ctRqiQdXZGL3mXK1oDo4jUSB6/BufIyrFazarzwzPeUrhy5jhjCGNsLYHi96u+PpW6Rr1N5A3FOIiQwWlbOPbOeZgnq88C73ag4BOyZwRymf4RxDyHMF9WGJq/TiJvx5r5Xh1SARwHhk9wcmpk7l1ssqIbaDQwiuyX0i+ApQZSchJtF/j+4fZcm2q5px7gDyZW69lQsJyA6Q+RVtmL5Yy1yf7eDVz/Dg3jfSseXUNXT2qey3AiyTTuVRFrBPErA2oO34riK4dFFqiTsHJFKZlUKHxX6PZkvdF7tM2K80W2Y90jX262NO61iA5aZVy71Y+lmJlfyxFqRL8icay9oTQwpQzMbuOH19zLrN+AyeoHVj3ppsHHXVoMl6H482ZJ0h1ArTHvt2ZxqfAizbyC1BR/Bl3k0JwUOscXshxteHcMFHvkdNmc1K8eKV/UVo6VLzpuwnl6ptPV2O+1Ptqzks4AoIon22/W6SS94CsPqLK8EML5/NBGLKF6WWobG/6mASiS8WO3CxJvgOJJYe8o2Cz8miA2uspkEePKt+qD7yWZbxBg1ezeXTgfCl3O3dqgWemncAABKpSURBVKyRQxOW570sK3zIwra2hzG3C/e9lQYmwC4UNVkLG+iwqceA7M3MtbxjWXqSgLXkQof52kG/VTyhbH1gaAgX/M147O0I28mK89MADsmXwFaJV48kqmYKUdj7PPZzDIblxSq8+eOeS7IEjsKQ8NESDP9WR3joqQHEMw925lJlO+ZvzMV0mZy2nh1U8NiGjTHoJDU/++w7ufgmmwuAQ7sxClCt7PHtQBr7+wDq23rEa9NQGVmMacd42jyua6lIZcjcj2j3d9dtziSA0tp2/Psj/6jwc2LtI2NySocAEZ0GAjjsuoHHJNMb0g1D6JWcD69TRRu8vqyxC68dZUknQaPXx3IRgFqwwTMNmgfHe5ShOuwJPOVceD+dxzXZ4VFFEZwq/N53E49yowHeyykezVhSNK+eu2BzDj731lqvKbFHWgHsP3ddMrZTD1jteLiHUxb2/Vhp7a6iilG4vnXfhRrM38Z1rXo9rF6aZ+nK6gPlNyfFi5f2+LD1TAVSjpVYuzLG1mlMwMrLltdkYefZCqsIXwFQAzXEUGMBq8HKM7fLYBaWYw4JicTjaE8Tu4EhwKjrOb58aa8P5wqbpOKHbeFvqE3eVHF7bFCGtzX8WuWlWQTw931MxKRHGdfF2+bxX8f+/WF3AbzFOhmjQv0TWXWyJxIBoRhw/M/WDmHe6kycya2zNmlTxp5b1ipz4wIQOo630vHCzkvIutoqITBlTDBllLfi9+8XSq33CzsL8MKuArmO1449rO93F8huFHNXh++oQAZ/fqcP3/puWVVcam1qd18ftp+vwkt7C/H429ng+4DvT82U8+PrMqVo/jNXjczRsy6aO2Mq56OGNncm6UR5W1FnssoWv7q/UKa4GBKLDY4MSVsOeOrwj4N+mVPlGH/OCg9mLPPI+ddrMvHU5lzZNnXdV1dxvrBRXkz+0YVKPMToSbARXbcxAEt2ZaLpsiiNhs0EhUyryFl5RBVSjgaB6oAAOhCAr7Id7Bw9qgBQPOZ4AWsTWJIb//2kGFnlrcFNxpQTmSxgyTjDsmxq34/VYiBqbjG6AEMOZQquSeLrIz1IPlaCxjb1Ok32q2dgCGu+KsODXKg+6Z0yXPLajuRPL8vaYBo6M+6c69151qrtTvLg/qVumRGw75rI6aXSujacvnQLZ32NOOtrsA5+Hn2Ef3foYhVeeV/X6+rw3YMZKRlYdbJc+kujV8Ma7qnUD46t935fgdQvSpH0aTGWHy/Gvu/KkV/WIlNd3Cydb4lIK26yQnwF2PfP3kmGVXqmXfx6daaUtrJumDJk9px94NLHQpaOemux+WQZFn96GX89fBmLj17G5lPX8El6DbylreAwkfbGjR8++L5CEo0TBiw9/UPrcvGBq07mTtkQBU7l8TWzRQOsApCa6D+WddOW7maHVfgXOSsZy/D1fV7M4DTDlyWobVaLDyS5JSHeaOcx3r8VaLl7wJuH/DItYvesUwrQsJBZhVBPb8rGsfRqy2MrAyxv6MIf9xZactMyiCWn23/38IYcCXW52Tplx8qnM75beGpznuytxX1z27rs+0pHGv6wffx/JBmHf3etvhNvnyiTKSkxSivKohN/flsuvsyolYhJ25jo06rIYlKJQyCyqf4tsr37Sgs2flOGQxdrwuQVdZtT2YRt7J5O45mHVfpXoTEjMA5f9vxQLeBjgnD0kJHyZdv10T+k8UOZseJsWHYZ5U6Yc7jaJ2zcPlaP9yjQ0OOFf3nvmxex9IgfLDLXu8tpYd32bDExG8QiaW4ryeeN/o3J/E1hzVuTJS/ZGhyi0VEAysBv276IBhbaFI7P4XiEpWLcPTAEWIJFh0VjZTaZ/lAP976Rhn/uL5SFzMPDAQzTAAIB2TT8qU2cbqKO2IbJgFYVZcxMTsfp3DrFsvJbARTXdCD1WCkeW58rOwayCky1g22ZyMH71TO468X6E1ctB2i3NTXefW5bAc5eapD9p/hbaupQOwnlFAhmyoMFG3nXW/HHPT4s2JSDz901wd/hvdFDYrf8fsrRYikt1H3yXVe1xBIB3iYkDdexGk/PScnEquNX0dDeb2u/GqoRwCpqUE5N6gcClMmQ5Ha4JfChtCo8sC7bGq/HtqvIIXES6T4LP/ibgjsVRPek0byr2iSMRi8vV56UkdkVrD+r9PmTG3Nx8AJf/kSwTg1gJTRjgqW+A6mfl8pSshBIJgsY3f7RZyrKhX8f8uNswU0Zw3Ln+ZzyVryyr1DmwVW4FFuh4QY1+jesv5Nc8pLnF3cX4NvcG/AWN8BbfAvfX2rA2hNleGR9Lk7n1sN9Wf2f4+mJH43y/C+9NfjPh3rn/9Htoi49mLvCizcOFSHdXy8bpXMZoHa+zOBz36VL5U3Y/PUVPLYmS5wpt3dd+2WJtF/1owEpR/ySDR8bwan9lP6xz4cvvex3IzKvNOGI5wYeI2BkuDExZ8g9uR9KzcL2U2XwlLQIeFn6qduvz23d/bje2I30y814+9R1zNtcgNlLSQJK/7fT31jAJnHzrovYePIqKpuYSdTzqWN/XDdi9JmekEZ/rUEtElcsNVpJU/G3R6pLuEH1edmtL6Tg0W2K52/dbhX+ByTZ4rrSKmGKSsZQqByH8zwxxcZWiEfem/Ob4PtscvDkpjzM4T5BQWan3Cb72yqk41aoj60PvTeHv8vEEJfPMdmj3qnDd+lM4NiQG7pvUzb43hzuTjEWRJYdMBTk2HmFB09szMZzu/LwjwNFUijCDOprnxTj9/uL8Nt3coMbwhNgfKsh98NWbeT7clSSirvxj5W1KgLhqzcfW58lr8p4clOuEAoBpxzieGSrM988K6fzUKoXT27Jw8K9hfjbR35Zwph0tAQ83vy4GH/aewnP7iyQMk+1sb0iHqXf2/+2DbDWjy9x4eFVmcgsawlmB7UBx2P0vIbXc0zEyfaFO7iruZVsGhV2jxVoJCHH/h/DRG5CxvCIm2L19OvwOBLzx/6fSqqpJAz7wPCLIUvKsVK1H62ES1PAcBHloJRFIwxOh8gOfew/v9OheGx5jEumXDXD6TIBizV9Epw60VM2Ez1bUzoytWPZVsRwU8vTMlZeI0e6yJwvoHpwFV+SlYnp1ntowirRKBvdZg4ZYuqIv6GAJWxKRpV7LdnL745Hvrqt7IPSjzzXGofOXObFnOWZEh2xUnD2Mm+oDsFqc+z2jm2LNYZVX/DHuEXj5lNlwe1IGGaqut2xDKsYSYOA3+uDWcderP3qqq3I31JIRGMd27D4DM9SNleSLHXjPweLZAcEjr10W9jGeB2NmhpiH0JZbtlgq6JdPKK8m0fAcyf6op+pDZgy0Z/5nf5+orLS9/GZPPQz7c/V/9PXTuZs/YYYr+7HOJ8n4OM99nbx8+g+6Ofqvuiz/r8+6+fo73W79P95nf6fvifWWbeDZz5Dn/XzeS8dhAXsiM/Wv6fPsX5PKp1CFzK8WLAlTwbkyuhp7BqEPIcbv2JedY1mYZ55z4+Fjfj9Lu5/azV6SoE6ulNKQGTyrWfKUdHULdUv9vaNbnv0v1X7Q/eOyAbTG06WqXGRGKBdIaPbMtG/78Qzo7VltGGFbEA5SrZlsgd/W/dJP1//Ha1d9nsiXWv/H59pP+zPtF8Xz//1NdHu09/Hc+Yzxvuc+K8PMizDormrM7DrTLm1lC0cnJENXBt3KMNKRuNrJlcevyLzmKE0tVZaPJ2e4DVSeufFx25uWGZNAVjrcCO3P54+qreYcxG5eiWGCqPGr5QJ9umOOjrTpvgiubtHTtYY1iWvzPvjXp9UXaixXDzGrFLXcr0NGLllt7DgHb7DJv02Y4qpF8R9b7nlfTAnsuus8SzD48klowh2OiIu3A8t1J76tjvNeEx7f34buIdMwXI3ZstYPqgqNuIBK6+xACthcAgYm76+AmbLfp5weLTQ1K4AL+0uwI9F6rUWkwesAnxtay/+cbB4AiHP6Daavw3YJ2YD98iAeKkH//ykWArCx2fcoclhMhAnydu7ejCfS+j0QDsscTCxRo5PuarYemayG//+qAgF1/W+r/E6obHX6cQVJ+w/z6zFs9vyY+67M772/hwyMb+RKDq5h8uUFu7Kx8mCemvsOja5dLvxn044dfUO4lTWDTyw3MqMyfhrvGNXXq8H4TqpQIOz/4+f9aEzcPxbfWban1Ur3GFh0aHLqGlmXa4NiFKJZfvb/l2Ez6FKlQBqmjqRcqw4VBcdbJcBRaKA4m7uxz0MW5/akofk4yVYc7oca05fx5rTlVhzusL6zL+jHbyO36n7lp+8rl4BL5PW4wWqzeDt84JBYPJ7DU7rWs4jCjhZ3uaW0j7256FVGXh2ay5e3evDlpNluFwTesVFrKx3GKhtwNWZbzLtwOAgvs2/iYWykDx9lCOx9cEkiyIULhj5TNYZSNKJ+/XMSc3AjOUezFzuxYzlmZghZ36OfsxcniHXz5T7+JnbjGgmnKhyrPslpNbA5JrKdNy3WL1Bm+H2nBVeeeHwgs25+P3OAvzjwyIkHynBupPl8tpDvhWb5XSXa9pR39olSSMV2qrMtgJuvCxrz4YHZFnX7rMV6m3uAszJ9nmisjL3TRYATrv/HnupnarSsKYtpAqGlTDRj+A4VZiPxhOj9Cwm4+jQ12JQC6wskWOFyNyVGbI/L7ci/cPOS/jbB0VI+qwYO0+X45irBt9dasClylapSuodGMYAC9XlDeCqACIIznGGwiHGVcMEGadbxdx8zb28Z1bG6ASsAa3TjN+J7Q3Ow0rjxfisMaSAxg6gKJ8J1iDL0Gj137G8fwSAJquN3h5a6cW8tdl4YlMeXtjtw+sH/Fh/vBQfnq/COV8j/DUdAsy2zl709nP5l2ZJgkpXKKmMtR5ba8DGP12ln8mzem7wGdYUD7epOeKqUZuhB0Ebq8/mOycC5G5rs0zrhNjBYolxgVUDlOxqP/T/Va1nGBsnq6JtZnJnkUVXePDI2xl47bBftvf44VI9CitbUd3UJcvcQqCMBCQ9nRT5TNDqJU48q/Fo5GtVhjz6dyEHoBxDaV0n/voe3+bOsazurwHm3WbkidQeW/H/RA1NGyqLyBULSxi9RO35c+8bF/Gr137Cr15Lw4ylGXjmnRwkH/Zj39kKfJNzE9nXWlDb0imL5LmDQG//kKwp5BQKp4nUm8O54//IXXd09Azih8JG2U5F7aahZTFRWZr7Eglcd6IvUwBYGlloDDdrZQ6e3VaA/+wvxOrjJXjvXAVO5NyEp7QF3LX+WkOXvJaQr+fj9iNcXaO28rSzpxM+qwXm3Px65WelmC0rSQxg74SRmmeGHPkkAauBaoXSDHWXufHUJk6pFGLpYT/WHyvG1hNXsOObq9hzuhx7Tl+zzvoz/3busf1kGf6yx2e9l8cA1oArBK47IYtJAjacXWWcmpwu2zU+sjZLMru/WZ+Jx9dmYt6aDMxbk4l5q3jOAnfue2RVRtgh363OkGv43Tx+5j28nvfz7//1If1gO9iuTDyyhguzuVewdlp3VmF3wgjMM52jsykArL2zZBgelvHak1fyf71Hq6qE4jTS6EMnp4JTTMEMdJQstf03fo7PVj+Uc9IOy9bnmNNXdlmZz8ZRjN8Gphiw42+AUZqRmbGB+G3AANYwoikhdJANGMA6SFmGieJnokSVlQGsAaxhWAfZgAGsg5SVqKxh+hV/5GAAawBrGNZBNmAA6yBlGSaKn4kSVVYGsAawhmEdZAMGsA5SVqKyhulX/JGDAawBrGFYB9mAAayDlGWYKH4mSlRZGcAawBqGdZANGMA6SFmJyhqmX/FHDgawBrCGYR1kAwawDlKWYaL4mShRZWUAawBrGNZBNmAA6yBlJSprmH7FHzkYwBrAGoZ1kA0YwDpIWYaJ4meiRJWVAawBrGFYB9mAAayDlJWorGH6FX/kYABrAGsY1kE2YADrIGUZJoqfiRJVVgawBrCGYR1kAwawDlJWorKG6Vf8kYMBrAGsYVgH2YABrIOUZZgofiZKVFkZwBrAGoZ1kA0YwDpIWYnKGqZf8UcOBrAGsIZhHWQDBrAOUpZhoviZKFFlZQBrAGsY1kE2YADrIGUlKmuYfsUfORjAGsAahnWQDRjAOkhZhoniZ6JElZUBrAGsYVgH2YABrIOUlaisYfoVf+RgAGsAaxjWQTZgAOsgZRkmip+JElVWBrAGsIZhHWQDBrAOUlaisobpV/yRgwGsAaxhWAfZgAGsg5RlmCh+JkpUWRnAGsAahnWQDRjAOkhZicoapl/xRw4GsAawhmEdZAMGsA5SlmGi+JkoUWVlAGsAaxjWQTZgAOsgZSUqa5h+xR85GMAawBqGdZANGMA6SFmGieJnokSVlQGsAaxhWAfZgAGsg5SVqKxh+hV/5GAAawBrGNZBNvD/ARCYxb7wK5RTAAAAAElFTkSuQmCC;" vertex="1" parent="35">
                    <mxGeometry x="519.21" y="135" width="92.58" height="71" as="geometry"/>
                </mxCell>
                <mxCell id="47" value="" style="shape=image;verticalLabelPosition=bottom;labelBackgroundColor=#ffffff;verticalAlign=top;aspect=fixed;imageAspect=0;image=data:image/png,iVBORw0KGgoAAAANSUhEUgAAAN8AAACyCAYAAADCkxqoAAAgAElEQVR4Ae1dZ1RVR9dOoomdDgKCgNKLgCC9iPRq72KPmij2xJoYW6IusSSWWGOLZWnUqIA9dlxqLIBir4lZMYqavN/3/Xy+9cx18HC9IFwUMO/5cdace+6ZOTN79jN7z957Zt77v//7P6iXSgOVB6qeB95TiV71RFdprtKcPKCCT5X8quZTTTyggq+aCK9KP1X6qeBTwadKvmriARV81UR4VfKpkk8Fnwo+VfJVEw+o4KsmwldE8v3v//5vMUCU9xUpg+8yb2XyV/R76vtlS3cVfDUcfATLf/7zH/zP//yPACBT/n727BkePXqEhw8f4sGDB7hz54647t69i99//x1//PEHioqKxLsScDKvLEsFR9ngeNv0UcFXw8FHoPz9998CbH/99Rfu3b+PS5cuYd++fVi7di0WLlyIadOmYfTo0eL67LPPMHv2bCxZsgQ7d+7E6dOncePGDQHGp0+flgDj22Yutfyywa2Cr4aDj8CjhLt48SJWr16N3unpsGvaFO+99z5q1aqFevXqoVGjRjA0NNBcBo3QqFED8bx2rVpo2LAhoqKi8NVXX+GXX37Bb7/9JsCsAqNsYFQFfVTw1RDwSfWSKqVUMwm8nJwc9O3bF+bm5njvvfdQ/733YPBBXdSrXR+uLi7IyMjA8mWLsX3ramzfugrbflyEbxdOx/ChH8PXwwMN6tdH7dq18cEHH4j8aWlpOHDggJCklKqqClp9IFTBV8PAxxGXgDhy5AgCAwOFVCN4DA0N0ahOHdR+7z3ExrTG1s0/4MGdi3j66Cqe/X4JRXfOaq67Z/HsjwI8++s6nvx5FbeuncWGDSvQrl0aTExMhLQ0MzHFmFFjcPv27WJDTlWM9Oo3SgJdBV8NAR8Zk5Lu7NmzaNeuHSwsLJCUlCRUTc7vCMTQkBB8v3Qp8i6cxp93fsXfv53FPw/O4e/75/DPvdMvrjP45/4Z/HPnGJ7dPIznt47gr+vH8dvVUzhxZBdGjhwGe3t7oY726NED58+fVwFYTTyggq+aCE+wUdWUql9hYSGGDx8OV1dXdO3aFdnZ2SgoKMDKlSsRFhaGCRMmIPfEfjy8/Sue3vsVf987i+c3T+BJwYEX1348KdBcRQV7UZSfjSf52SIVvy/vx6O8fbh9aS92bluBpMQYIVXbt2+PEydOiLr8888/KhCrkB9U8FUhsXWpXX/++Sd+/PFH+Pn5ISgoCGvWrMGvv/6KDRs2oE2bNkhOTsbq5d/i6oXDeHqPku4snl0/hqLLB/Akfz8eX8rB40vZeHxpr7h/cikbTy5l6bz4btHlffjzyiEc3bsZPXp0hIGBATp06IAzZ86oPsAq5gUVfFVMcCUA6Z+jS4CSrWfPnvj555+FRXLmzJno1q2bsFJu3bweD2+ewd8CdEdRdOUAivL34smlnBfXHhTl7YEGdKUDj4DUADUHRQX78GfefhzZsx69enYW80l+7+rVq6rkq0J+UMFXhcSWwKO6SYm3atUqId2GDPkEhw8fFlbIiRMnYkD/gaBV8ucdW/HoziX8/dt5PKW0K8hBUd7uF1JNAz4Cryhvl05J96oEJDhfAvRRwUHk7FiD+PhoGBkZoX///sKtIVVhWV81LWkoeVP0UMFXxeCT87xDhw6he/fuoNHj+LHjAnzjx4/HgP4DkBAfi5+2bsLj+/nCmPLs+nGhYhJMUspRzXxyaS+KLmWj6JKUfLrVTV0gLMrPwfNbx/DHnV+xafMatGrVClZWVmJAIPho/HlTTKaWoxu8KviqAXyPHz8WUSjh4eH48ssvMW/ePLRt2xYeHh4ICQnF0KFDUPR7gQAeAVIk5nZS1cwWquezW6fw6Pop3L94EI8KDoBGFY1qyfnfS+n2KvAI0Bw8vnoEF3OzsGLpfIwfNwapqakwNjJCZGQk7t27J3yNKmh0g+ZN0UUFXxWBj9JEqpvbt28XhhRHR0ehXtK1QKNHeno6IiIi8M03X+PZw0v45+4pPC3ch8d5VDE1ko7q5738o/h56w+YOuVzjB01BEsyv8SdX3e9MLy8HnycNxbkZmP27BmIbhMFby8PNG/WDIb1GsDcxAIbN25SjS9VwBcq+KqAyBwpGbXCQOdNmzYhJjoaVo0bw9fXFx9//DG+++47EJBbtmzB0KFDhUP86aPreH7jMIryKakoyXLw9OoRXLtwGIsXZSIuPg6ubi7w9/NBjy5pOHVgI568kH66pd1LlfTp1UM4c2gbFmZOx9dTRuGrcZ+gfWosfNxd0KieITp36gzV7fB2pR55QgVfFYGPxM7NzUVyUhKMGjZE6/BwoW4ePXpUAC8zMxMjR45E586d4O3lhid/XEHR5b0v5nhZwtjy4PIRzJ87DXGxbdCxYyrmzpqELWsWYOePC3Hu8EYUXaGElGB9CbaSYNRIxocXc/DHlUNi3vfk6iEUnt6N7+Z+CTc3F1haWooAbkrrN6ViqeW8CmYVfFUEPkq+KVOmoKm1NSJCQ8WKBFo4p06dip49e6Fvn74YPGgIOnXqBH9vbzy+/yueXta4Byj5nt88gu2bliAtNR4jhw/Gpdzd+Pv2UTy/fgDPru1XAE/m0Q0+zXxQzgmZvjDcXN6H3y8fwrfzZgrf3969e1Wjy1vmDRV8b5nAcsTnujvO7ejUnj59Og4ePIhxn49Dv7798OmQoeIa9PFgtG/fAV06d8CTO6fwtOClFZN+vpEZAzA8YyDO/rINz64fUrgddAOtpMTT9U42ii5qwKdxwO/HrbzD8PRwEwYhLkGS9VfTVyVXZWmigu8tg49GFnYSI0i4tCcuLh5r1qwV87w+vfsUA48AHDhgEGJjEzD36wkounH8BfgIwCw8v30CUydmYNva+Xh27fArfr3Hl7Lw6MIe/CXUTk2e8oCPc8m/LmXj0cVs/JWfg4d5Wfhm2ufC+EOrbGUZTM1fOmhV8L1F8MnlQQQgo1foSxswYAA4v8sYllECeEM/HYZBgwbD18cbP29ZJsCgcZ5rgFR0ZS+eXt0n5n4ElUZ93CskV9GlvQJ4V09uw+XTu/E0XzriNdKuiAC7mCPKJEg14Wga1ZN+wz8v/Iyrp7aj8Mwe/FmQjc3rFoq6ch0h2yAHEBVIpQNJH9qo4HvL4KOzmgzMWE1vb28MGzZMqHR9FeompR7Bx2emxka4cZ5xmrrURM2zl+DRqI1PLx/CXzdzcfzIbsyc/hX+vnlYxHo+zdsFXk8u7cGd3J9wPjcLd89n4UmeBC8NOdl4fOMoTp86iG9mTEXRvVzs2/UDPvjgfbE9hT5MpeYpH0hV8L1l8FFqcEEspR4XtFLy0ciiC3z9+w+Ag31TPL+Tiyd50iiiG4SasDJKODrdD+Kf337FlUvHkRIbjef3zqLo0j4BvGLwnc/GrOmTsHfbajy9+lJtfVp4EP/8fh65J3PQuWNb3Ck4Ugw+7gejSr3yAUmfAUcF3xsGn1Q1pbq2detWtGzZEqZGpqjzUR0xl+KWDp8M+QQjR4xCRsZwoX5KtTMwwA//3C0bfELlzNOEmj29cgh/3z2Nv3+7gId3zmPF8uWYPWsGnt3L1cwZRdB1FopunkSXdkmYP3c6Hl09KoBJAD8tPIz//H4Wtwp/wYL5s7B0wXTkn84SA8WsWbOKYz1lu1QwvjkwquB7S+Ajk+7YsUM40m1MjNDDswXcTc3FWr0RI0YgLiYGURGRSE5OQb9+/QUQ6WoICQ7AP7+dfa3kE473vCw8u5KDv+8cxz/3z+Lv38+j8MJRxLZujTWrMvFn/h6hYgqDza0TWLZgGjKGDULWttV4du0Q/ri0B3mnduDQnh/w06YlGDtyMDw9XHDy2B4BPm5dwdA3Wmrp85MDij6jvJrnVdCq4HsL4CPwuECVqiZXC0xu6YnN0RGIaOYA8yZNRACzhZk5rM2sYGZkDgcHBxFmNnToMHh6++Dh9ROvBR+lH9fmFZ7YgtWLZmDBnCnYsmkJfly/DEGBgQgJCcADRczn04JsnD+xE127tMPIjI9xOXcHHubnYMW30+Hu2hzOTg7w8nTF5EnDcfF0jgAft66ws7MTq+m5FaEMkVOB9CqQ9KGJCr63AL6bN2+CQdPcWexTby+cTIrBNF9vNGtsA8umDkjv1Q1rfliCHdt+xMLM2QJ4ZPJOnTqjTUwczp3c8cLgwoWyMmql5NxPgu/KqW34cuJINHOwg6enKzw9PdDEwgbz50zGn1f2idXslHy0nD66+gsWz5+B+Lg2mDFlDO7mH8C5Qz9iUeaXmDd7Ijb/MA+XT23DlbN7BfiGt2wJSyMjEfD9008/gVsXqtLvzQCPYFXB9wbBR4lHFY3xmnXr1kV752Y4GBuO08kxSHJ0hKVlE4waMRxHDu/G8V924tihHSjIy8WmTT+gpa8X/P39hVq6csk3eHKFy4X2CaulJrbzVfAxlvOPghzk7v8RS+Z9iWlTRyFz5jgsyZyGm6d34gmd9Hkv8nF+d3kfrp3OwqiMQQgPD8HSeV+h6MYv+P3CLtw/txOP8vfhcX4OLuXuEuDbFR2J4S1awNSoASKCA3H4wAER86nO+94MAFXwvUHw0Sm9YsUKGBsbI9TKEjtjInArJQp7YkLga2WBju2TcHjfT8jevRUD+vVEXEwEvpg8FvtytiJjaH+honJZ0eCBvfHk1jE8IRhE+Fcplk/u0XJ5L54WHsDjwgO4e34XGLP56OohTT4JvGK3Bd8/iGN71qFju2S0Dg/G7s1L8PzWITwVi3TpcM/ChRPbhavhZHQwjsdGoIuTPczq1kHGsGG4fPmycLwTgCoIKwdCFXyVBB8ZkHMh+vMYOO3v5w/TBvWwNMgPN1JicD8pAhujAuFpYoRZMybg1pWT2Lt7M7p17YiAVn7o36+HiNVcv2YRggP90C4lBisWz8ZjugPyNPuzlC9S5cV2ErSCXpb7umiDlr+z8Sh/L7atXYDUlHh0aJ+CIznr8fwm3Q/ZeHRpN3KPbsVHH3yAU1EBuJ0Qjm3hgfA3N4GzY3MsX7682AKqBl6r4KvWECgyIJffcAHqmDFjUO/D2hjs4YyCxCg8SInC3YRgrIsMgoeJMb6d/w3+uHUWV87txbeZU5E5azI2rV+M3undcOLQNmz9IRNHdq7Aw4KDr4SPvR6AL9VS6YQvLWVZlJAbViwQ2xNyH5cT+38UFtBHF3Zi944VsK71Ac5EBeB6bDCuJoRjSksv2BsaICUlRewzw3ar4FPBV63go+TjOr2srCzY29qihYkxchNb4z6BlxSB2/HB2N46FN4mxpg7eyr+vJmLy7k7sWntPGT/9D2unNmNrT9+j/zcnXh2db+4dM3xKgY+TbC0WLFQwLC0w8UqrAigFgaYLNy/eACZs6fBzdUFM6d8jn/u5eLh+Z1YteQbRBk0QH5MMG7EheBWXBDOJsegczN7YYDh6gwexqKqnSr4qhV8tFpx169BgwbBqH4dTGrhgd9SonAnKVIwLiXHyfhIBJubIiNjEApO78b9/P3I2rES2duW4lFeNu5eyMGDC7RqatTE0iyc5QOgZhtBrlZg2NmDi1l4evcUiq4cKi6f+748LcjBszvHseGHeWjVyh/zZ0/F8xtH8dvF3cJ6+mlTa9xIjMDNuBAh/e6mtMGSAF+hPrduE4U9e/ao4KvklEWd81WSgM+fP8fPO3fC2twCvk3McCKhtQBf4QumJfgKE1ujbRMrBPv5YNuGxXh29zQuHtuGkzlrxPxMA7oX2z+8iEgpH9BeqppK4GqMNDkounUK2zcvxYOCQ3h65SCeFmTh6ZW9wqJ568xO/JK1EeM/H472aQlimRJ3R7t7YQ+SExKR6e2Gm4nhxQOIkH7x4ejh6gAzY0N8/vnnYgc2ffxbah6NxFTBV0nwXbt2TRzN1bh+PXzt7y2Adz+ZUi9YSAyC715SBOb6esHJwACjR36K6+f2oejyfuFIZ4jX47y9eEQrpVAHNfGaFQGfZm6n9AdS7czGgytH0bljOxzJ2YgH53fh3rmdwrl+aNcaZH4zCe3SEtCpXSKyti3Hs3un8PBSNq5cyIKVVRPsbB2Am3GBuBH7sh13E8OxJsQPrcxNERcXh/3796uWz0rwjwo+PYlHYwMdzgya9nB3h5eJCY4mRoHAI+CUF6XGqfhwpNnZwMPVDfPmTMeDy4fx6PJeoXbeOLMDR7PX4+pZrjjQLBMqP/goMeki0CwZ+oubLeXvFYD+vfAoAvy88flnw7F62Wx8t3AaBgzoJZYtpSbFYPPab/HHjZN4eOMYCs7tRu4v27Bvx0oY1a6FUylRuBUfVAJ8bMdpSr/mDrCzscHXX38tjE2kg2p8qfj8TwWfHuCTlj6ud+PhlEZ16iDdyRn30xJKgE4JQBpflgf6wq+JHZo5uWPs2OE48ctOHNm3GePGZsDDwxUHsjaKNXvlAV7xqgaufqDkvLAb13O34+q5fXh0ZS8eXc5B0fWD2L9zNXp1SkRyQrTwHy7/7mucPbpdhLA9unUSBWd2I/Pr8eiUloJjR3fhq8kjENqgLgoUkrtEO1KikenvAycjQ7HvKKN5VDWy4sAjzVTw6QE+yWw8IZaGFidDQ6yLCMWD5Nalgo8MfCUuBHO83eFuZIj3338P77/3njgzz9bGGrNmTsZ/Hl97xcWgMb5o++s0cz0RYlZ4GH/fPoFnNw/h6tlspKWmYOaUMdiyaTl+2fsjrl88iKLfLuLvR+fx/PczeH7nOArP7MT2rSsxZozmYBZ3dxesW70Q+b/uQURoECZ5eOK2lsopAUjptzsyCIm2tggJCRGn30p6qGnFQKiCrxLg27Vrl1gg62duitOpbV4LPjLwjYRwZLUJRIaXM7wbN4ZhQwOEhQbiwY1z+PtOrlAhNfuqaDZCkjtTM1UCUc7zigoP4/GNE2IB7o0L+3D2+A60S4tBgwb1Ub9+PTRsUB+NGjYovrjXJx379erVxUcffQRvby+sXb0Af97PxU/bVsO8QQPsSIjBnfiS8z0JPs4BzyVGYIBrM9ja2or9aGSggQo+FXxVogbRyrlo0SKYNWyEdEcn3G2bWD7wxYXgWlwQChLCsSE8GJHWVsLUf+HsSfx9/7TOQOq753Pw6PI+PCkoKQGl5HtYeARb1i/EgJ5d8Oz+aREwfSxnA2ZMHoGOHdrBy8sLluaWYj3hpImjMW7MJ0iIDsXUr8bg5OGNeHRlHy6f3IbBfXsgwNgE55OiS8z1JPBkeislGvNa+cLJ2Eionjx3QgVexYBHeqmST0/Jx1XePDPPzsAAM/x9cS8lCoXxoWWqnZJ5r8YF41p8KA63CURfF3u4uDhh47pl+M8f+Xh+6+SLHcU0quXzm8exdP50XDy+U6xYJ+BKuiZy8Dh/P7i6YeG8mfhy0lj88/tZFF0/hPvnd+HqqW24dHI7fj26DWcPb8HNc7tw69fdKDy9C3d/zRIW1j/y9mHz+sVwMDPDWFdXXIsrvR10odyID8HGQB+Em1sgNjYW586dU8GnBx+p4NODaBy1eIZenz594GVihA2RrXA/uTWuaVk5Jdh0pXz3UlwoZnh7iFNoh2d8gv95ckOontJnR8PL08s52LHpeyz9LhOXjm4Ta/g0AFRshJSXjUd5e3Hh6FYMGzYUESH++G7eN/glazXOHduKWxf34W7+QXFdPrMLhVzLd5EHZ2qCss8c2oJO7dPg2agBjkSH4XZcUKmDiPBfxgXheHQQ0ps7ICAgQJ336clDKvj0JBw3leXhlSEWpjiaEI5b8aEiDEsX0Ep7djMhDDvCAhBl3QQhIYG4WZiL53fPlFQ98/bgfv4BfD46A8u+m4WbZ39GUYFmfR4tnhqg0r2Qg0eF+3Bi/2axfbyzsxP8W3ohJMgXrcMD0CYiUFzhof6YN3syqMpyDnnrzC7Mm/0l3K2b4MsWnrgaH4abpVg62Q4xwMQF43xCOIa5O6F58+ZiNzZV7VTVzipTfzZt3Ah3V1fEWVviamqMmCPdLENi6ALgrfgQXIwNwYwWHnCztxUxnv88zMOzG8eKN8SllGPM5/7tK9G/T1esXPwNHhbsA1emM0xM45bgvebQy7+u7Efu3rVYMHsyRmb0R5/endGrV0d8OqgXpk7KwOLML3B8zw/4k/t85u/FltXz4NXCC17m1jgSw3CyICijc7Trzf+vxQUjLzEC4z2cYWthgXGffVZldP83gVyVfHpIPvr5vl+yFE0tLdHZoSnupcWXqqZpM6/yN6NgbsQH4+ewlohuZo8ObZPwF48Gu6fZw4XA01g49+BR/n6sXDQdAwd0xw/LZuNhwf4Xe3hqnUybl42nVw7gz/wDyD+6BacPrEfu/nW4cHQz7p77GY+v7BMhZtzD5Xj2BnTskIIPGtSDk7Ut1oe2wt2UKFwvA4CUipyz5seHYaaXExyMjTCwX3/1YBU9+EgFnx5E49q92bNno7GBIQa5OOkNvpvxobiaEIZNYX4IbmKFJk2ssXvnZvzn0RU8u34UT/L2vThLQbM+7/6lLCzKnIyPB3THykUz8ECcXHSw+DCVl875l6FmPLePx0BzjV9RPlezZ4PS8Xj2Rgwa0BtWtrYwbWIDC4vGiGvugLXB/kKylSb9KPkIPtZ7UUt3uBgbon3bdmJlx79JKlVFW1Tw6QE+LiHi9n+N69fHKA833EuNLpfko7pGwHGBKv19p6JDsDjAG+3tbWHeoB5MTU3F8WAP7l7EP79fEIdiioMsxT4u2WKD23vnd+HbORPQL70j5s+ejAvHd+BRwX48vcx4zpeB1tIoU8R4UWG40SwtKszdjtVLZqJzu1TYN3dDU+8QeCd0gb13KxgZGiDEpgmW+nvhSny4zjZJtfNWYjjWBvqIpVIJCQligW1VMOy/6Rsq+PQAHzcS+uKLL2DdoD7Gebrgno54TqV6Ke+v0kyfEIZfY0KwKcQPGZ6u8LY0QyMjI5jZOaNxc3cYNaiPKV9+jsvnj+PJzdwXa/EILI16yWPA7uflYOnCaUjv1QWTJ4zChhVzkH9ymwaE1w7jaeEhsR/n02uH8ezqQTykJfSXTdj2w3x8PvIT+Hq3gFFDIzRp7gnfTh8jYsRstOqZARtHdzQwNEGAtRUW+HrjdEworlM11rLiUl1mkPWGIF/4mZqIIGvuXfNvAkZVtEUFXxWBjxIvLz4M2RGtMMXTFSHWtjC1toWFmzucwhPRossweLXtD3NLa9StVQvc23Pr5lU4e3gbCo9vw50zP+HhhV1iu7+zhzdj3Uqe5/cp/Fu1EqcKcTvA1Uu+wb5t3yN332ZxHclai+3rF2HR/JkYMrAXvD09YGZoDnNTS9g0aYKmjs3RPDQavt1HInz4bAT3Gw0rBw+Ym5qhmYERprRsgdyYoFcAyBCze0lhKvj04B0lqFXw6UFAbpTEs9TLknxUMSkhaKCg0/p0TDCWhQehi7Mj7CybwMLRFy6t2yFw4FhEjZmH8BGZQgJ5d+oD80YGqPX++2I3sy8njsH3387ChtXzse3HRVi7cj769OgEZ6vG8LBpAm93VxgZmKDOh43QsGFD+Hs64tPBfZHevRNSEqLg4+UFLw83eHm6waGpHeytbOBi2wQhdk3QuqkVHC3NYOvREmGffIU2o2YhcvDnsPfwg4W5FSyNG2GKXwv8GhNQYonUjbgg3E0Mw/pAH/iaGKuSTw8eIghV8OlBuGfPnomYRs75Rrs7vaJ2EnSFccG4kxCMgtgA7IkMxFCP5rC3toShuSUcfAIQ1DsDbcbOR5ux8xD92XxEjclE6LBvEPrJFDj7haNhQwPw7IalS5dizuy5mDBhojjngee4uxsbY6irK6Z4eaBHM3t4W1rD3soeNpbWsGjUAAP69UJaUhK6tG8rVqWvWbUQ3y74GpH+vvC3MMUkHzccig3F6aRoTG7lA1MbGzi3bo/QQeMQMfwbRI2eAzvvQNQzNUBjY0NsCfFBoUL1FMaYxHAsb9UCbsZGSExMFFsmKkd19f71fj8VfHqAjxsm8RwDo/r1kN68Ke4mvVzDx/kRg5KvxQfjQlwoFob4wMPCDMYmJrBs5gyftr0QNfJrAbzI0ZkIGz4HkSNmIyJjJoL7j4ZLai84J/eEVWAb1DEyxmfjJuDUqVNigybum9I7PR0DnJvhXGJrPEhpjdvJUchNaIOlkeFo69AUttamSIqLF6A9/sseFJ7LwsJ5U+Dt6ojeDs2wJzIUN5OjhOTiMqetEUEIcHSGdXAMXFJ6wb1tP0SOnC0GhCau3vjQqDEy/VrgQrQm6oXtI/gK4kMx29sJ9sYN0aVLF9XaqQcfqeDTg2gc1VetWgUbGxvEWlkiP7F1sVGCzHkjPgibYqOQ6mAHIzNzGDVoCEffVggZ+Llg6oiRmQgfPgdRo+ciaNBkuKSkwzU5XQDPo113AQLX5N7waNcDDW1cUKtuQ6SmtcXkyV8gKjAAE9ycUJgQidsJYWKTJkbXPEiNxo20RGyKiUJLIxPUq10b9WvXhrehEYw+/AiD3N1xNCEGd9NihbVVGoF2hfkhzasFrIKixXcJQLfUvqJunvGdUbd+Q6wK8kbBC8nH+Z5wsidEYJqPB5pbW+LTTz9VF9PqwUcq+PQgGsG3bds2MSdLcGiKsymRxevfCLyfEuPQqG4dmJiYwPjDD+HXPh1tRmukiVAxR8yAX6+MYmbXgK83CLjSLhPPQHzQ0ABW9Wsjs6Un7qS8dG8QDFRzuU3hg7RoFHZvh+G+3sgMDkZhWiKmtfRGcPPmGBbgi5y4SBTGRwg3At0Gx9sEYpCPH4zd/YpBTwCyHi4+wXBqbIadkXSsh4k8BB/znY8LRoaLHaytrYXlV1UzX69matNIBZ+e4Dtx/Ajat0tFUGMLHExsI8DHnb5uJkVinIcn6ptZoJmHL0IHTkCbMZmaed3w6WjZfRjcUvvAJTVdA75kSr3SQSdAkJIO56QecInpAEdnN8z28y4BPinF6BY4GxMsgNewTh1MC22FwuTWWBMegq5OzbE1kvV7uen4RhAAACAASURBVOCXIDoV3QrDWnqXAJ/mm71Q38Ya3Vwccbx1q2KfnwTf6bgwDHJ1hKenpzhIRZux1N+vB6MKPj3Bl5+fjyGDB8PFwBCL/bw1ko8ByXGB+C7UFw3q1YVzUCgihk0TwGvZcyTcUvrCheplOQCnBCQlkUYa9YKtW0tM8m6Ba4kROgO5Gfh8ISYA6yKD4WHQEGNcXeFqaIiAxubYGOyDy/GhYlcyrrrnnPFkfDgGhwaJOaaUePLbH5kaYHFYAArigoqtnZSwDD/bHxWEjg4OYjU7g8xVsL0ebNo0UsGnJ/joVJ42bRos69fHGHdnsUMZJRBVwANJkTA3MoSJhQWC0ochLGMWQodMhme7gXBK7Flh8GnAoAGtTXAsRoSGIC8pvBh8/Ca3qBASMC4EFxNaY2QLR3g0c0CnxCQsnDcP40aNRqirC8IMG6K3rRVGOtrjCxdHZLg6wtfZCU4J3TQDA4Ge3AvucZ1hVLcOdrcOwdW40OI5rbB0xgVhtb8X/E1NkZqaKvYt1WYs9ffrwaiCT0/wcccuHopiZGCANtaNcSGltQADd3i+kRKFJNsmMDMygntyBwQO/gqRI+fAu3uGnsDTqKWUmLbhiUjz8ceu8EDcSdTMwzSg0wRp/xIXiq6WprC2bAxuc/HLL7+AUrqgoACbN2/GgPR0xLWJQ7fen2BgxmS0jkqCiYkZXMLi4J7WE64p6XBP64YmQW2Q1swe5+LCcUOxSFisQ0wMx2h3F1gZmmDIkCF4+vSpKvn04CMVfHoQjXuW8Nq3b59QuzyMDfFzdCBuc98TYfgIwfSWvjC1sIClmxcC+48XrgXfHiM00qWCaqdUA2kRdYzvCm8Pb8z2dhYrykWsZWwwLsYGYXOwNyJsmyCpXS/UqlsPy5Yvx61bt3Dx4kX88MMPOHPmDBYvWoj+o8Zj2OLNGLVxPz5ZshHx/QbBxLY53FLTX4CvCwycW+C7sEAUxlPyhRQvFOb3chMj0cvJEa7Obvju2+/Unav14CFqBir49CCcBN/Vq9cwetRoNGlQDzN83HEvKVyoZ/Tz7YmLhIOlNQwaGcC/yyC0GTMXFQFfWXNDG58Q9G/hiZOJrXEkOgiLvV3wsZ0VWrt6IXngKAxd/hNiu/WBX6tWOH78OK5cuYItW7YI9XDdmpXI+GoWxmzIwbjduRi//Si6j58BU3vnF1I5HW7xHfChoTH2xUQINZpqrTTq0OCyIdgHIY0tRGTLkSNHVamnBw+p4NOTaCQcAcjVDatXr4ZJo0ZIaGKJfK6Fi2VIWRCupEShs1NzWDRqBNe4DgjPmIGQQRPh1WFguVRPGj+cwxPhltJNSCNKPwlIh4hEtHTzQAeHpkixs0ErGxu09G6FzuPnYuzmAxi3KxdfbN4FOxdPTJo0GdxVm6cosb7Ll3+PIZNmCvBNzs5FxpL1CE3rCvuwRI31NbEnmgbHwMfUBBfiI4q3i5ftupwYihGezdHE1AiffPIJfvvtN1Xy6clHquTTk3By41yevd66dWs0MzTAjvjw4pXg9xLD8H2IP+wtG8OuZRhCPp6IqOHT4NvtU+FQf6lKluJmSOwGF98QtOzSX+OaSNIYXITlM7EzHFpFoHFzDxhZ26Gpuxf6f70QU7LPCWlGiTZ132m0+3QcvFv64+jRozh27BhOnz6DGTNmYMCXs/HZtiMYv+0Qek2cCadATXQLy3aM6wojB3d85u2K6/EhxeDjGr7bCaHIbh2EWFsreLTwwLJly9RjovXkH1XyVYJwUvXkyD9nzhwY1a2LwS3ccC0hTIRfUT3jsVq+Nk1gbusI/26fIiJjOny6SaNLWf69dLhHp8HFNwhhH4+DR7uBcEnSuBvokBeuiqSeaB6RDAe/IMSnD8CUvaeLgUfw8aJqaefujXnz5mP16h+QnZ2N8ePHo+/UTEzKysXAuUvhn9gJTtGdX/gce8Ixqi0MGhhhawwtt5rt4sXiWQaKJ0XiKw9X2NdvII6v5iZSZCL10o8GquSrJPPQ6kmLoru7O5oaGeKnSEqIMDH3u58WhwGO9jAxMEaLtB4IHTYT3t1HlMO5ng6PNslwDWqDiGHT4dV5iCaPcANI0KbDumUY7D3c0XX0BHy2eR++yNGAToKPafLAkUhMbSt2GLt//z6mTZuOfl9lYvzmHCQOHAYrr0CNOpvSC04JXWHrG4YWRga4kNIG11+4L+he4LkNB9sEI8HSAk2trTF37lyoVk79QCcHKxV8lQQfCcn51PTp00UsZQcHO1xPjRJLiRi4zNXedMS7Rach9JOp8O4x8rXgo2Rzj+0Ej5g0RGbMfAk+hYOe79j4RcDczAItvH3Q8ZMRGDJ/GcYShFlni6Xg+PV70dTFG8uWLRcrD2bNnYdBU+ej98S58I1rB7ekl/49h+j2MLJ1wAiu1EjiZkrBYle2a/FhyI8LwQQvVzQzMkLPnj2F5ZTSXzKSmlYciCr4Kgk+MqA8j53LfQzr1MHmmFDcStCs5zsWH4lWxuaw8QpG0IDxaJk+6vXg4+oCgi8qFpEZLySflnuC4GsW0wEWXv4wMTaHsZEJ7F080HnYWAz/biNGbczGpN2nMWPvBYSm9UKfPv1xYP9+zF60HJ2HT0JIWm/YBcTALa2HqA/D15qGJ8LGsjG2R3MHs0CcjQ7EodaBWB/sh8xWPvAzNoJxo0aYMX0G/vjjD9XQUkneUcFXSQISfFQ9uWX68uXLYWjQCDGOjjjH4GVGniRFIcHCDCYOzvDtNRyt+n0Gt7Q+ZVo8RYSJNvhKqJwvLJ8vws6ax3WCZctQWFjbw7CREezs7NF+0CfI+PZHZKzZhUGzFsDZyQWjMzIwafY8BCa2hW2r1nBO6gVnRtyk9hJANnPzRpiNJc4kxWJ1sDcmtvRF6yZWMG7YUARQOzg4wNLCEt26dBOqNgcdVeJVXOJJmqngqyT4aPUkE/K6fec2EtKSUauROca39MOFmEDcS45AhpsTLM0t4NVhAFqPmIGWPYbpBJ9LUjqcE3qIQGuN5IsXRhqvTi/mfDqkn7B+vgChc0J3NGuVAEtLW5jWqYvatWohMDoJ3UaMh7OXN+ysreHl6opmvgGwi0gG33dL7Aq35E6wDYqDkak1Ul2c0MPNBR/Wrg1LSytYWlqK1RuLFy8WR0F369YNhoaG6N27Ny5fvqyCrxL8o4KvEsSTI5hMpfrZoEEDfGhqhu/Dg3A5Lgjf+HqiuZEhPFN7IXxkJrx7jtYBvnQ4JnSFZUAknOO7wS26Hdyj2yNw0Ffw6DBIWDupGjon9hAAdYrvBsf4LnBO7AyX5E5wiu0El6i2cIrtApfIVDh5+cHCtDHMjc3Q6MOPYGVhATsLhp1ZwsHbB85B0XD0iYCzlx/sXbxgbmUDc3NzsYMa68+d1IYNzcCePVliZzIOMpTyPJOQ/j0evvL999+LdXzq4Zj6ST8VfG8QfAQht5hgKFe9evVgamSKnZGhWBMRBk9jY7jFpCFq5Dfw7/uZDvD1hmtiD7iGRQrJ0rRpUzi38Edo3+HwTu2FJkHRsPcJgq2jO4yaOqKusTU+fL8O3n///TKvuu+/DzMjY1iYWIjLxsQI9iYGxZd5w3pivxijevXg2NQOTk5O2LBhA7hPDcHG68aNGyJMjbu2EYRcxRATE4P+/fur57JXgn9U8FWCeFLiKVNKAQKQJxgZGhjC39wSs0ND4W1mVjb4ErvDPSIaTl4tYfzBB2huagQHMyPUrVcPtT78CO/Xqg0zCwv4+PggLS0NQz75RCxi/e6777Bu3Tps3LhRBE7v2LFD3K9du1ZsJTF92jShIvp4esPaxh7mbt5o6h0AO3snWJiaibJ27tiBSZMmgXM6AosSnKBjGT169BAB5Hfu3BG7UvM5T6MdMGAAoqOjcejQIfEuQamkg3r/emmogu8tgI8ApDWwV69eMDEygoeNLRwtTNE8KApBgyYVSz5aLIvnbEk94B7bAS7x3dC8TTu4RabAqrE1pn41FVu3bsXhw4eRl5cnJBD9dVzSRCMPpdGTJ09E6BjDx+h7Y8pnlF5UE+kKmTZ1OgLSusOv92ixX4xHXEcYGJsKZznfZQRMXFyciFrh2YPckZtbZVy9elWUwTYReAQV7zm48JCUefPmqaDTk4dU8OlJuNJGdjKmvK5fvw4aKMxMTWFl2BBOfqEI6j+uGHwMMSsGYHIveKT1RejAsQj9+DNEZMyAkaEVTp44JYBEULFcShiZllYH5XO+/+DBAzE/i+o1BIEfTxKLe1t1GwILh+Zo3769ANft27dF6BnncwQZJR3ndOPGjcPnn3+OmTO/Rm5uLp4+eybARsuum5sb+vXrJ8CuSr7XSzplv/BeBd9bAh8ZmBfPbSeDNmtsLrZnD+iRoRt83DcltTe8Og4Ul2+PwfioXiMRl8nd0lgWGVx5aXemrt8EKtXE9evXI7JLOny7D0FA37Fwiu8EQztHse1fYWGhkKBc78dz1uU35HKkCxcuiPWAlLSyLjk5OWLex8W0DNxm/XR9X31WOihV8L1h8EnQkenIxPzN9XTxoaFo2rQ5Arp9Cv8+GoMLpV5J6fcieJrP03riQyNL7Ph5l5AsLE8yuPIbr2NugoUSmBs+haZ2gEObtvBo2w/NW3eAcVNXhIeHC5WT87wDBw7A3t5eSFp+Y8+ePVj2/TIsX7ZCqL5nz54VUpJlcm0g1er4+HgQnK+rh/r/qyBUwfeGwadkMqkekpH7duuOxnaO8O44SCP5dDjNCUR5cS5Yv6krVq1ZJxheWW5F7iX4srKyEJ7WAU1C4jWqbmxXWDt5I9DHRxhqOFBwf1DuRsb9QfmbYDt06DAOHjyII0eOiEGEc0zOI3kU9ODBg5GSkqJuI6EnD6ng05Nw5QEAwceL4Bs2eAis7RzgldZHgE8TXaLZok8CTpkSfKYtAvH13EwxZyvP93S9w+9T8tFgE5ncDtYBMQJ8bgnd0dTVB17Nm4mTZQk2Lo+iU51GFhppOA/k3I8py+Bz+ZtgTE9PR6dOnVR3g548pIJPT8LpYnTtZ2RoXnw+euRINHNwgHdqz5fgSyobfPYRScgYNRI3b9wQACaItb/xut8EH+dkXNPXOiENVn5RGvAl94CddwDsrawxfPhw4R6hxdPCwkKoobSsUvLRyMK8XLlx+vRpMYflHJIGF/r6Jk6cWDwPfF1d1P9Lqp4q+N4i+JTMxnV0ze3s4BXXAX7p5VjZwODquE5ISUtDXt6l4vmjsszy3EvwUaWMiUuFlU+kAB83S3IICIeleWO0bdtWAO6bb74Rh60MHDhQWDgzMjIwf/58rFu/Htu3bxdqKTdi4t41nTt3FuCj4YWDghxkylMn9R0NCFXwVRH4uOTI1dYWdi5ecGuTBpfYDnDlRrgvlglpp85JPeGa0BUOLu6C6aX6WlHGJSgo+WgUSYpNgVWLMI3kS+0F+1bhsDA1h19LP+FS4ByOQOzYsaOYy3300Udia0A64DMzM5E5Z47w/1HV9PPzE1snyvmhCr6SUq08/aSCrwrAR8lAM36bkBCY1KkDc2NTOLj7wjEkHs6xHeHCmM3kXmKVgQShU0JP8ezDhoZiBbqMOilPp2q/w/kag6BTElJh6eYPx8g0OIQmwtrdV4TAeXl4CR8fVUzO6ejA5/yuXbt2GDRoECgBGUoWHx2NsJAQIfG4ZynLVKVexUEn+0cFXxWAj1KB200syJyHhLg4eDg5wcbMHI0trMWW8k6hCXCO6Qjn2M7F1k5xcEpKL9RpaIx1a9cJP5zstIqmBB+lH8PSLJvYwdG9BWxt7WBhaiqiVHjQCS2YrKecVzIlCGnVpJrJsDWGnnHeR4AyhE6+W9H6qO+rameFjRdvgmnu3r0rYi+7du0KZwcH2JqaiYMom7l7wzk4Ao5tOsAlrotYsUCJ2NDIBjNmfC2sj/p+n4HRN2/dQvfu3cVqBMZrxkZGwsHKSpyAy3A1AonSVaqPVHP5W5e6y2d0Ych39a3Xf3s+VfJVgeTTxWSMFsnOzkHfvv3QxIqnwBrD3LQxzKyborm7N8y8/NE8NB6GDq7oN2iI2HVaKZl0lVnaM1on6S7o06cPGIhNKbdgwQJERESA6/RKy6c+11+lLA/tVPBVMfgIIEoOKTUYs8lokbFjx4LLiHi0s3G9ejCqUwd169SBUe3aCPTzE5vf6gs+SlsaRjhvI/ioNq5Zs0aooTzeujyMor7z5oGogq+KwUcmVgKQ6h5/86JEoq+NABk9aoywQLYODUPDBg3EjtNU9fQBAcFHyUfjyaJFi4qd7gwPo/qrb7n61EXN8xLEKviqAXylMSCBSCDQmMFlQby4IzbjLb/99lu9I0lo7CEAabUk+HhwCi2bQ4cOFa4E/ldandTnL8Hypmmhgq8GgU9X53JVBLdsGDFiBLj6QNc7r3vGeEwaVUaPHi2kKgO96SaYPHkywsLCRPSKlMCvK0v9/82BUQVfDQcfF7bSMMJQLsZT6sP8XFTLNX10llOlpfuA8z5GtPj6+gqVluDjXFSf8tU8+gFSBV8NBx8Z+6uvvhILV7kmTx+AUI2l6snV6QwXo99u06bNaNe2HVq2bCmWG/E7BKAKJP2ApA/dVPC9A+DjOjvu3TJr1izh+K5oRxOwtHYuXbpUWDiDg4Ph7e0tNkv6+OOPhQNeGn0qWrb6vv5gVcH3DoCPwOFJSFwRzxhNOT8rS1IRTBIYvGe0yqZNmxAYGCik3ahRo8R+LYxYkQ5zfaSq/IaaVhyEKvhqOPgIHIJixIiRiIyMFDGiEizlAR9VToKX6/O4LCg2NhZctUCjC32MStCUVZ7yPfW+4kDTRTMVfDUcfBIQP+/8GSEhoUhKShInBP30009itQNPneV8jkYVhoPJS1o4aSHlIlmez86VCVRfuX5PdS+8GQDpAlV5n6ngq+Hgkx1JsHCL9kaNGomdpak+cukPlwFxdzEaZWi95PX1119jypQpGDNmjAAa99jkRkceHh5wd3MXIOTWhrJsNa0eIKrgewfAR+lHicZNkAi25ORk4X6gpZKA4v6ZdnZ2sLGxKb64Aa6Lsws8PT2FtKM/j1Jz2tRpuHjxkgq8GtDvKvhqQCeUJXkIPM75CD7O/xiCRlWS87ctW7aI3aSpTlLaUfrxmjp1qnArLPpukYiQoaGFFlM61qmeshypzpb1bfW/tysRVfDVcPARKMqrsqAhkHlVthwVmJUHpgq+Gg4+lckrz+Q1lYYq+FTwqfO/auIBFXzVRPiaOhqr9ao6SauCTwWfKvmqiQdU8FUT4VUJU3USpqbSWgVfDQbf61wCtFgy1IzLjnjGHt0QdMbLsDHmf9OMJ+skLbAsnyFs/C73iqErQ35TtayWPcCo4Kuh4CNzE0QrVqzE3DmZ4Ka7XI/HgGhGrHTo0EEEW3M9Hlco8GrRogVatWolVqu/LcZnuTK2lAt05V4wdObT4c/IGy7SJRj5Hv2TqltDNwhV8NVQ8JHJGZ/JhbS2trbi9CAeYmJmZgYjIyM0aNAAH374oTiP/b333oO8DAwMxNKjtwU+KfG4Fygd+o6OjqIutWrVwgcffACmrCeXLTEYgACUklBNS4KwwuAj8eXoR3XjTV1UnVi22kGaDpIq5cKFCzFy5EhxiCWBRwZ///33i8EmQSdTgo+LZt8m+Njn3FOGIW3yu6yTdr24QROXMql9WhJ0kh56gY+qBM9s4/qynj17VvrilnYMkVLVk1c7iSsWuHU7Twpi2BiPYi4LgErJ9zboyTK5+zX7XgJPV8o6Ghoaii0rOBBIhlPTl32sN/hWrlwp9pjURfiKPmOkfpcuXUQHqdLvZedIRiXzki48pplnphsbG78iZSTNleCT+d90yiVK3HpeflNXWrt2bfE/TzGS57i/6Xq86+XpBT7q8dx6jmezcS9Ink7q7OwsiM0RT1dn8JlSNeEJqFzmwm0Mxo0bJ1ZZk5gq+F4FH2nCi1Jn1apVYjez0mhcFeDjJr80+Mg+1SWJJfj2798vpibvOlDeRv0rDD4yAC8yA61x3IyVG71ybsIlK+yI0gAo/3N1dRUWsePHj4tdtJTm6bfRyH9Tmbt37xZGmOoCH/ueO6FxHlq3bl0xoBJoNLQo68S+9nD3EHuEqmrnqwMqebLC4FMyMjtCqkSchBNM1PO1O0J2igQftzHg1gYSyMoy1XvdHSXpsmfPHrGdhKSpdvq2JZ+UwjwskxZNajPS0inrwn6mZrN40ZJKna4k2/xvTSsNPnYGAUhVlId/0N9E4suOUKZ8zs7iBrCyE5n+W4n7NtpVE8DHQZNaz7p164QU5pTDxMREDLx0iwQFBQnNhu+QN/j+26DFu15mpcCn3XhGWHDFdGmSTwKRKot2XvV32RJP0qe6wSfrwZQDJy2xy5YtE1vP9+3bVxyyScus1IpU8JXer28UfJR8HPVU8L29DWhrGvgIQKVk470SeP+N4NOmh3LAUt6r4KtEhItUnZUElfdkOnmvnSo7R/u/1/2uSeBjO2QImQQh2619Vaa9r6NHWf9Xx3f5TdJC1ks5+Egayf/eSfCxEWyUbCQbLBvNZ7zIFJL48n0lISQBXpcyryxbMpV8pvwty5HPGLEj66VMlcwq81QkrQz4ZL0r8j19aMY8bL+kheyH0r4r6av9v8yvK2Vb+D7z8n/ZNiWtZR1e933t7yp/l/ZtWWft78p6yXzsb8mL8l1Z/jsHPjZANpCN4D0j+nnwB+MNuUkQUwb2MjZS+a5s9NtMSXRl+TQ60DTP+vDiln2MEFK+U5H7yoCvIt9Rvksa6svApIe+eZV14D3rUVp5ZHDSljTmBsG0P2j3hXZ55fnNMpTflPxGaz2DHnjJfVO1eY35WBceyy03rlJ+850Bn5IBOKKdP38ec+bMEb5Fnl/HYGPti5EgNABNmDABhw8fFh2ibLz2PTuQm9D++uuv4kQgRmf8/PPPYpdoRu/Tlzlt2nSMHfuZiDThwZLcM5PgkmWxniT4ihUr0K5dOzRp0qREvVingIAAsb8mBwoyJjtJu+NkedppZcBHQwjbweik8l7cnJdzebqSyGikOyNc6Dynz5HbGdLqyXP/Zs+ajQkTJopzABl+xiAKMp5sm+xDtpc0467Zp06dEqGKbBfdFxs2bBBHVXMVx9gxn4l9RxkjyhDEs2fPlgACmZ7fHzjwY7Gig7SVPEDrK1d5sAwGBbD+2rTU9Vv2B+vIi785WB46dAjjx48XK0lo0ZXfkSldK6GhoaK+pBn93yyfpw3zna1btxYDUA5G7xT4SECesNOtWzexPyWJTUcvXRhM5fIaZYDvRx99JBpvZWUlQqLYwRyFSADJFPKezEXCcv9LEpPR+Y0bN4aFhYVYTcAOJSHpy2RIXP369cXRXTxDj4SmpKXljwRnEHS9evWEa0VaeWXKOrHu7CyCtKrAR+bhHp+sW3kvrqooKCjAyZMnBZgkbUhPSRtzc3OYmpqKNpE+9DXyeGu2n5FQHNRIH9KbbSWdeVagsixJa1mWpDPL4goOPidAWQbBsGPHDlEfC4vGaNiwEWREjaQxUz5jX3EAZOywcpDUBTw+k2CTwNu8ebM424LtZZ3q1Kmj05VGnmO/sr6kC/dNZQgeV56wLjxhivyh/G6NBp8cKVlhdhjXsjk5OQnGZ2MJOgIgKipKdAxBwINE2DEEEf+n5ZUX32cnkihcb0bpJAlBgpPYHEkZKkciSwDLvMpOVd7z/AQyJ0c6nvzKjlb+r+ue9eLFjvTz88Py5ctFp8v6lJVWRvJRYs2dO1ccBc0VCZKG2nXkc4KB6wYpibgygVKHO2ZzANJ+v6zflGza4CMIeOIS+0Lm5TfLspITRGw7VUueI0/fIvtT5tdOtcsieHg2Ifu4LPqSF1hfTmXoj+aSKQls9hnryS33GeSenZ0ttACem0gJ/Nlnnwn+ZF34Husn87KPqUEoebpGg0+OPgQVY0A5+imJzAZy12aqlDxCWRKV8yyqVXyfnUCiKfOxI6iKcjGolHpMKVkJXq7Y4JIZMhq/ocyrfU/JQDWjR48eQprI/zmqazOA/I9lSgBSYvPwEjI368/O4SXbop3qCz6WSRqR8fPy8gQIufhV1oN140DWpk0bofaRplyPR4ZhP1BbYD/s3btXqPtcNCvbU1aqBJ+kNacNXPXOjX+XLFmC+Ph4UZaki67yOKhRZSYg2H+yTylhKXWZh/lJc166+q1Zs2air/h9JQhIY1k3PmebKZnJP7IcSSdqV+Qtzi0pgfk+6UPaUkCwf9LT04tpI8FHfuIgxu/IPq3R4GNFOWcg8CSBJZFJDI7eM2bMEKCRo6tsGEdIHqcsGy87lMTkxY7gnJH5SDxlZ/AZCcWDJNnRMq8yZRmsA+tF6UVVg6vIZ86ciR9//FHMh6iycMEpgci8fF92pqwHn1PKcJU628u68JLt0E4rAz7JKGzfvHnzigcLSmBGJi1YsECM5KQd39X+Nn/zOaUHz4pneJmSJrruleBjfrZRXmwnv8Udtf39/EVZkj7aZVFN9/f3F1MA1pVzbdaBEoeDH9cw8hg10ph9XtrAR1BxSRTboWyjpD1BRBqzP5VlyHrxkBkOSpI2si3yNwdwHrvGBQdsg+Q/qr000sj3mNZo8HFk4UinS+KRGFT5OKcgAbTBx8ZRTaIOruxIdg6JSl2cZx5w0s9OUDK8HBkpJUJCQor1dlkOv81y5MX5E+NVs7KyBGOyLJbJOnGEpJpENZj5ZCeyLFkO5wpkHMn0yrooO4v3bwJ8LCM6Olp8nxKFgxtPMeL3+Q1teijrIJmUajYjlSRNSku1wSfLkt9gW29cv4EJ4yeIskhTXWWxv/gf51EbN24UFm0yuiyHjE0VmWoi31PSWVke+5OGNObjJevDdvE320UthnkkcJT5qW4qpywyP1NZBjUvHr3NhQbsW+bndv7ac84aCT5JFBpXqNuXRkx2hFwpzYYrCcF7XZJLMjxTSj+5iFfJ8BI8VqY7/QAAER1JREFUrAfXGVK14fuyQ2UZrBeNMZwb0UIqy2A+XvzNetGCGh4eLjpBuxxZJhfJKlVP7bbI3xUFn7ItvOc8hXTjoETNgBKDqrYsn6msv/KZvJft4sDIE5GUjKnrvjTwSUZleXQL0PDE/KSprnL4jPNxAofzMVlHmbK88gwInM/TKMaBUckzvOczgkYO9rrq0q9vP5w/X/KAUmVbWB+Ww4vTF6m6cgDmQMx35XdrHPgkMTnH4AhEJlEyrOwYzpVoziYTSMbQTqn2Kbc6kHllyjI6d+4s9HVJEO0yGK/Iyb6yDryn9GTncM5JhmZ+Elw7P3+zTVzxL62fEnCyHkxphSSwdOVXPqsI+Phd0kcygwQepV1MTIxQ2+TgpfxGWfeyf5gSuMo26LovDXzKbxBMnM/pyi+fcQD84Ycfin23/L52n7EcmvRlntJS1ltpI2BdWBZpxXloafnYb85OzsJYRNWT7zMfL+Ugx7qxTKbkURpeqO5yTqisd40EHytO34zSIqfNsFT1uAhX2Yna91SlKN1KIyafU3Xl5F87r/zNyTPBpyxDCT6qi7R2yg6Q+bRTGng4t1OWo7yn5Y/zF+ZjWdr55e+KgI8MQQbhQLZz506hBtFFQpWTPjqpXsuyy5OSeXixbFoslW3Qdf+mwMf+Zts5kJRGH7aVhiJd9VA+o8QmTbTby/z05ynfVd7LAZcaw9ChQ7F+3Xqh8VBdJz1YL9JGlsvfXOtKAH7//fdC7ZTv8Z0aBz5JWKqDJDilCxutDT764egyoGWKozcvGgKUF0dBpTlbSUh5z0BwAl0STDvVBT7mZX1YN4KX1kPmUxJeuxzq/GVJYSX4yiqnPODjyM5OZjkc4Qlqqr2UvKw7VWm2mf/zPe26lvWbeWS+qgQf1UUOpkrm1a4n/6M/UvZtaaku8JHvmJ82BBqgZB8ry9DmRc4v+/TpIwYhzkP5bQ7knPOxbqQTpTEjrmhZl4Od5PEaBz7ZuZyX0PStbLy8J+MTmDyZlVEn9F3RcklmUF7aVlKZX5nSgkY/jXZHyt+lgU+WoQSfzKMrrQj4dOWXzyoCPjIBz/CjeVxO/Flv0o5bgNAAQHrLssuTyv4ho1Y1+CitJePqqqu+4GOZsl2cn9OaSjrpMrjIflem5EdavWnAo4ZDhzrn79JNU1qdaxz4SFSOFnSmc6RRNlLes7EkDOdsVKP0vaiL01xOVUVXZ/LZuwo+qlU0wdNVQnrxkvRjyrkq51kcjdlOMkhpTKKkjWTSfxP4ZPvZJmpQci6rS+NS0pD3pKvkU0lnahi0dFLVpDWd2ocu+pYAn3xBpuxAmlUpShm4TCRTL5aVVXYK7/l/Zdfz8du0CkmLk3Zj5W8CjlKre/fuQo2iKlXRq23btiJGk6MUv6vdHv5+F8FHtYphdFTVSC8ykZKRyCy8aD1k2wkoMh4vXTRQPvu3g49zSsbcMl5Y0k6CSvKerpTvSDrL//mMGhznkRQopK+Sz0qAj39yJKT/hJYZ+k2GDBkidqripJFOWHYWkcx32RHKjnlT4CPYXwc+6SZQfl/fexJEuy2yrHcNfNQGEhMTBbjkiCyZQaYSfLQg0k0i1aP/ZvDJ/mZKDFAbooGMtCKoqGkRTJKG5UmZh/kJZEYGcRpAPpMA1Ak+zgUYea+cJ8iP0UnJCTxHCG2GfVPgo7Sl/0x+U1dKdYq+EyXRKnpPIugaRJTlvGvgI63Y4VSpaZTSNW/h/5IxXFxcsHjR4tfSQdKEfc6LdPu3zPlk25hKnqCGR98t+YwGmIoCj/1AGtNVRnozbI8+RNJNJ/hkJWjIoLFDF+JZCY6sNKHK92X6JsDHsuh0fR34qFIx0Fp+W59UElp7EFGW9a6Bj33GwATurULrIAFIRuBzyUBkBl58zmdcdkVHu6SHsv3a9/9m8Mn2M6X0Y0pepLGM4Waklz4XaU96M7Bb6Vd9RfJRrWQcnewoXR+jk5YxldodQ/BxHsaP6crHZxxFuLRFO6/yNxtNCatL8spyWb9OnTq94ixVlvMm7t818HEuzLVwHLl5cYBigLgSfJKGMmXoFp3uVIs4Mst5vS76/VvBx3ax3Ww/2y2BSBByvkZtjBFXE8ZPhJOTZoNoST/yIqVcWXzPd3t07ykMMJKuJcDHjzMomCqLLFhXyo8w8oMVkxVl5els5FxMjqq68jKSY/HixWWCj2UOzxgBQ0ONwUC7HDlyUwLThyIb8zbSdw18VHPodpEg4tydi0q1aSh/k3FITwZ/y1A79qtkQm2a/hvBR6CxXVQL6Tqi0ZD+YtKB0yvigiltHZRc5DlGwtDNRR6U4YeSpqWlFExc0CxpWgJ8NLTQzCqdsaUVQnBy7ZrsIDlKMLhVOihLy8uIEPprZAW0UxKBz+i0VE54dUlirquiH0u7jLJ+S+ZhyvZSrSjr/XcRfJyLsW94sZ0Ms+Mu4QSZLglI2lL6kTnIgMwj+1abNpJ+/P/fNOcjD7PtpAGnNFQR2UY+V16SHgQkgUjLKAPqaZgsS+gQD/QfErSyjFfAR4f168DHQugjYqVkQRwZuN6rNNDJ57SuMS6utM5lmexgBslSipIxdDEMy+OIwy0GpBVJ1qWsVDIPXScMvKYjXjuwWJn/XQafpCUHmEkTJwnpRlqWRk/2e0JCQrFZXEkHeS/p928DH9tHnxxD76hCuru7l9gCQ7ZfV0oJyRBDrniQfK4rpRFTaSspAT6imRKnLLWTas2nn376SsXoE2TgKz/KztX1caqcS5cuFeKbYNXVEHauFPOMwqDLoTRm4Te4IHTLlq0lBgJd5cpnZEhacwk8hgdxqQ/X4Mn/tdN3GXxsC+lMoHBgJLAo4Tig6dIkSE+O+tyPhf2gTQv+luBjKp3RuvpaPntTsZ2s19uKcJHtzM/PF3451p32BkozXTGg8n2m5CfSl3SmvUQuDJbtV6b0Q3MPHJm/BPhYCM2rnLQrM1GcStWEmwIxHIsA4cU87Ag6xtm5zKfsWOaV+ekrpJRhHl6yEspUjtZ8xlAfNoaWV1mOLEvWj/t3JCQkiuUbynKU96wfy+Uz6utUlwhalsHQK/pgtN9nHj6T4NP+rmRgGV7G97XbxGfy2/ymvrGdynJkeJn8vqSDTDk4SrVT5mO9yBzUVmTolHxfO+W0ge8wxpH5WIakjWQ0PuN/ZYGP9GLZBJ+cQzKf7Aem8p4GjdetapDgU5Yh6yVT1qm8sZ3cT0XWQdaDKmTnTp2LeZhheEuWLC3ee4XflpfMw1TSl/5p5RpHSQNJY/aLck1fCfCxYCKdkQ901spM7GhazLj8hstSqOaxM+VFKyePrpI+DeVHmZe/ud0CI+s5aWU+fksSrbSU72zavFkAhWVQAkr/FOsmy2bHMJyHWxIwyFlbDeUgce/+fVF3Ls6lKZ75qVowBIj/K+sgmY7fj4uLK/bz8HtKmvA3J+c8IIbvsl3a5bAsdhBXqpe2Kp5l0oL83beLRH5t2jA/nzHl/I3qC7+trI+sF7UWtpF1kd+W+WlE4EqQslZXkM6kMSMzyEwsQ7ZJlsO6kE/KUrMkD3CVOhld9jnLYHksQ7aThjrOsdgGmU+2R6YcFNh2AlmWIeslU36DBg2Zp7RUxrWyHNkmpoVXCtGzR68S+b08vbBq1WoRiMB3SA9esu7yGb9N8HLpmPwu2yLb493CGwcOHBR2BuZhnV8BHxmRAOMEnZ0gC6Lpn7GCsvH8OD9IEyy3juOeHvyQEhwyL+MnaUXlBJUVlxJTEq20lOWz47jlAUdjdgABKBtE5uP3+Iz/UY2kpGJwK6NxuGkNL5reaSCio5OjGd9neXJfDdZJEoR1kYaYvXv3vXZlNP1oXKtFlYX5lG1h/UkvblvA8+wIDNZdF2gaNmiI5KRkMSEnnZhXlkVay3LoOigLPFQrKc256JR9Q1qzbSyDKeccUkOR/aNMWT9JX04vyMyyPsxPWnEOyZApunqUeZX3sgwOiuQbzuEl77Bdkn/YvyyLAzvzy3zKsuQ9t2Zg/fl95pf0Yb0EL969Jyy28v3SUvIyp0iSPpI2V6/yxN3+JdrE+vi19BNSnlqbHNj5TX6fKfNzMGJIH3lQ+V3mJ48sWLBQrGxgPWXdS4CPhZFAfIEqBdctkalZGDuUcyNaa6i3Up2gpZEjKUd/fkRe8uNcB8fNgThicXSTFVWOHJKAulL5HolNyZqakiqcnZJ5JfgkAOV3mXKuyLAeqnpKKU5CpKSkivIosdlWfocXGZXqFk313HslLjZeGHXYLvlN5TfkPR2wZAyanjn6ybbQyc25JYHP7QRZRlllEZzUOrhUioYvMibbvnbtWtEfw4YNK5ba8tu6Ug4ulNjsG/YjJRjbSfpT82DZMnZRO792H3KaQalN+mftyRIpJR4DMcqS5CxHlk0L95gxY8QKcjr/WQ9Ob7iinGURePQty/dLS0lnAp59w/Av9hfbxbkW+4zt9XuxF0xpZcjn1B6429iqlatw4cJF0WfcL4gDDt9h/ck7HMz4m3xD9xrpQNWWAyoHFObh9ymA2rdv/0obiCG5ip115VUq+CTjcBTnxJvLJCRhqBrRr8FKkPienp7FH1MSm+8TkJywcqTiqCBHF1l+RVOC49jRYxg7dqxYm8aOJzOT0Xgpvy8JrEz5PiM5qHKcOpVbYhQmM7B8MjoHmLKApixT+56Ap8FKto0TbFpktd8r7292LMH8unna68qjc1hKQNaNljnuOSMH1tfl5/9U1bt06QoXF1e920NmZmgi6c2Bigxdnm/reocbKLG/yFssS9c75Xnm7uaO75d+L/qMPlGq7OQnDpYMUOfGv+7uHsUDONddUovh3I7BIuRHaltKLFAY0FJPDWPFipXFe/NIvpDpK5JP/iGlASUBV+1yzkYm4IhJ1Y1GGRpCKN0YCsZK0e/GUY7vU+3hyE3QsSw58sryK5qyHF4sk4AmiGgWprrL0YWWVFou2aG8eE/VmX4bqpvcSZmGImWdWB7rQWbgPTuSIxgHGH0u7mBNFYrl8ZoyZQq4ckKfspiHk3NKLZ7Drm8ZzMeRmX0gac66EQSUOOUtl5tRUUrRVVTePNrvcbNjSizSmtoQpZj2O+X5rWHqFcIlQklOtbY8+XS9w/ZQXSRNuOCVgQY0onHqQprRQLdyxSqxYoaDNzFAXiOPcbAl7/OeuKARj/xIwLIc6VLjwMey+A3ZB0xLBR8JJC9m4qhANYoqC0cHTiwp/dgpRP/8eQuK5xnyI8r8vJfPlRUo7z3zK0U2y6LayBXZJD6lNEPevvjiC3HxnkAiUOVcU36LeVme/M1UPtN+rnynPPfMr7zKk6e0dypbF1kuy1HSnvfK3/K9qkq161PR7yrp+yZoJPue2h75nP4+bZ7hd6gy093BQHTyGaUf1WmqlQQbBxRuG0jrLdukrKcuepcKvrIIIjtPV4Fl5VP/K/2gRJU27yZtKoOBCoOPaKYIldebGHlUxns3Ge+/vd8kFvTFQIXB999OcLX96kDxpnhABV8lTqZ9U52glvPfCWgVfCr4Shie1IGg6gYCFXwq+FTwVRMPqOCrJsKrEqbqJExNpbUKPhV8quSrJh5QwVdNhK+po7Far6qTyCr4VPCpkq+aeEAFXzURXpUwVSdhaiqtVfCp4FMlXzXxgAq+aiJ8TR2N1XpVnURWwaeCT5V81cQDKviqifCqhKk6CVNTaa2CTwWfKvmqiQdU8FUT4WvqaKzWq+oksgo+FXyq5KsmHlDBV02EVyVM1UmYmkprFXwq+FTJV008oIKvmghfU0djtV5VJ5FV8KngUyVfNfGACr5qIrwqYapOwtRUWqvgU8GnSr5q4gEVfNVE+Jo6Gqv1qjqJrIJPBZ8q+aqJB/4fYKinCj9s1eoAAAAASUVORK5CYII=;" vertex="1" parent="35">
                    <mxGeometry x="275" y="87.25" width="41.97" height="33.5" as="geometry"/>
                </mxCell>
                <mxCell id="48" value="" style="shape=image;verticalLabelPosition=bottom;labelBackgroundColor=#ffffff;verticalAlign=top;aspect=fixed;imageAspect=0;image=data:image/png,iVBORw0KGgoAAAANSUhEUgAAAI0AAAB1CAYAAABzn2LRAAAgAElEQVR4Ae2d+VdUV7bH3x/1ekwnnU46naHTpoeYYXVehmcGO4lmHkQcUAFxAYqgggiKKOACRAVEZFBEhSUqKoM4xwmXiNypivy43/rsyy0LrCoLo1jw7g+1btWtc885d5/v3fM+979+/vln8T8+DSaDgf+aTGO/rQ8uMOCDxue0k5Y0Pmh80Pig8UXo4xehPqfxOc3M4DRO4GcZsUbljjEqQyPuZ9gcFdv5WUZHH/+T5HOr2DROKE4DIIKjP8u560Fp7nZkR7stm5ttKWmxZedRR3quBOWuOarAGfU5xKQ5xKN6GBICNIHgz3J9aFSKmmx5Pc+Q51Ya8myqIc+sMOSZ5e7xj6mG/CnNkL9lGbJ8pyXHLwSeGNEeFfGnaz9PHDSDd0al4ogjs9eZ8uIqQ363xJBfJY3Ib5MNeXa5IS9nGPLiSkN+s8g9z/G5dEPeWG9KRp0lF28GffBMMdd9oqDpvxaU1Xst+XuOIb9aOCK/X2LIuxtNSd1jSdEhWyo7HdnT5ciuLkeKj9iyZr8t87eZ8ucMQ367yJAXMwz5foclJy8GxAnGlsPT9alOxHk/MdAMXA9K9l5LFx4AzMo2ZMVuS/Z1O/LTraDYgftBgFJ8bCAgec22vL/JlGeWGfKHFEO+KTOl56egWM791yQi0af7nJ4IaAaHRyW/yZZXVhny+6WGzM41pKTVFiykeAhqOqPS0hOQz0tMeXqZIb9JNiRlpyXnbwYF/SiePvw2D0+nKQcN1hEi5631poqYf+YYsqfTCS20YY/KzTujcmNoVC2lWIt78lJA/lPs9vPfC0Zk2xFbbg3HB7xY/fr/xQbUlIMG38ucLab8OtmQVzINKWi0Q4CBSxztD0jWbktWVlvSeNIR0/lZgjG4R8+1oDyX6irK/8gy5EBvwPflPGbFeMpBs6vDkddy3EX+osKS2yMuZ8BHc7A3IK/nGvLUUkP+sMy1kj4qMqXjbED9N5E4wJAxKtUdjjyVYshvFo5IQavPbSLR6VGem3LQzC815enlhvwr15DKDifEFRBbufWWPL/SkD+tMOSPy11gAR5AtniHJWeuoOyOFz9woWtDo/L6GkN+t9iQL0pNOXbO9+E8SpBM7GvKQAMnwfr551pDfr3QkG8qLPXwehMCNCurLHXgvZVnSEatJUt3WfJShiG/ThqRF9IMeb/QlI3NtmCqh4ssrKZVuy35U7rr/KsK05G8/v1jbD1lMvSZMtCgr5y5HJRXsgz51YIRSa+3NLbkTTYEmlRD5mw0panbEczyolZbPi0x5bkViB9DXs0y5JsdltR2OzIyZm0Rq2o84ciLmYb8frEh61vsqOLMG88/PjyIpgw0LGxLt7uwLH5eyz0FmAUMB837BaY0n3ItKqypExcCsrzGkrc2mEI4Aa/wh5tN6RoTQ3Ad4lJ/zTYEKyqjwfJ9No9RGZ5S0NR3OfKXVYb8YakhhQfjA004R2g47sg760317WB55Y9ZXgDuymBQ/rbGBQ1cjMBm+LX+94fnLBNpN6Wg2TsGmqeWGLJxEqBBtOH4I0j5abGpXuCXVxmyYQw06EtXbwdllg+aKXlQphQ0B08HVO9Ap8lpjo/TEE44ey0o32411aoCcIi3j4tN6b7oWkmIJ+JPf81yOU3mPlsQhxOfEP/3o6HJlIGGhR245uodRLHT6iy1pryFDNdpPiw05cCZgCrCWbWWggEzHavr1VWGZO215OTloKDvcD0AaegaU4SXGLK+1Q6Z8l7//vHRAAY6ThloSJoiG29WrqHe4C/KTOm+dM+fEgJNmiH/WmPI19tM+WSLKX/B5F7oOvx+2GFpxPvi4PiAJrGolEpLleTXsg2pOXYvLOGD5dGBxaPllIHGG/BHFpdkqmxDSg7dE1HoJcXNtrxAAtZy18FH9Jso9odFpqxrtqX7ckCB5/XFES5DTs2sLDdd4vsKN1UivI3//dECZ8pBg//ln7mu93b+dlPO3XCTqOBEKLrztprq0AM8eI0XVlly8ExgnDMvHAREzHH4aehhqSFbDtnjxF54W//7owHPlIMGrzDeYDjIy5mG5Oy15Pbde+YxAcvsOkvSd1pS1+XENJ0xq5vPBOSVDNep978FpnT4IYTHbgBMOWh42kkaf3+jqVYQwKk66qjYQUTFww3gSqY9Kof6AgJQyKfBE7y7yxnnZY6nL79NfDQPp9MTAQ1+ly0Hbc3/JUWCAOX2g3ZMrhI+aVI764878uZa1zsMaHLqLU1O96sUJg+CcNrG8/2JgIaJ3bo7KlsP2SpaUHhJFp9bZApe42iJVPhsSPdEzyHORBL60ymGLNlhyZVbQT9P+DGGDsLB9MRAwyQoW6k46sgbaw357x9HVM8hDeK9YlOSqiz1+G5usSV/vy2pNZbM3WrKGxtMTZ+gWgFzfE2DpVFvuFf4jfnfHx89nihoWFisn9ouR7kHNU1wHSoTqHealWnI37PdDL9niXInuz4bwDKv1JSth2255JewTPnD8sRBA3DwtVy4GZSSNls5zMdbTK1OILCJ+KFU5Y11pnxQZMr8clNy99vSORBQZTgejgIXwrFI3g1OxHiueZg23AdjzHSulxCgCV8gFpdwA9UFAOa5NEN+KHV1HVIkMM/jWXj6oTqhfSAge087UtXlyO4TjuzvCUjnhYBcnuBVDp9DvN8BByL2+MWAHOgPSF23OwbjHRwISO/VoII1nvnGO2YitEs40HhEIZEKTkOJbvYeK+4AJAuJko05vrTKkudTXX0JnYkPuhDeY2JaJy8H1ESfrMWFa4C4V//1oBTst+XNHEML/QjEMgaxNWJl8zeb0toT0HTUSHVc3r1Ot2NCgwZOwwfTmqqEeIh7c2hUVuyyFHCY8yRsEbtiIfmEn3s+zdANBhAr8fTttWEuOBVfTHfjaDpGctgYC8dcAehnP47IgjJT+q7OnPLhhAbNH5cZ8vRSdzMAsvQITHoLF+kIYL6qsDQpHY6C/2dxhSVVHY4W1+0/7Uhxqy1zCk0hxQKl+/l0Q9bWWUJNeaQ+J56Dw2zvcNSCow84y5x8Uwqbba0OBUyMt2KnJX8myzDZ0EqJ+SVuVcXE/qbj74QHzTMpbmUCPpwrt2M/rYtYqJWud/idAlOqjrl5xuhB6DiEHSjCI61i4wFb/rHa5Qh/TjN0oaP5h8IXtvKYo8nxv1tkyB9XGLKh2Zau8wHVbUgUYxzGQ7FvOhOQeSVu0hglxEurxyfTh/c7nb4nPGjgNspxUgzJrrdUgZ1IYPSY9t6AvLra5R7vbTJlz4nYIQUU2G3ttvwVJ+EidxeKjgdsX3L+RlA3HIBDYfbnNNkKwmjWEmIPK48qUHQcrlnfbEesU594T4n8O6FBA5d5dpkhL49tNUI5S84+W85eH1+zjchgN4mnVxi6XUlxW/SQBJsLHO4LSNeFgG40sLbBViUWXWfrETtm7Kr8iCP/yHH3zPl6uymDQ5FF2rAxqrlCe086GnHfd8KRv4+V7ny2zVQulMigeNDcEho0KMHoHF+Vmkp0wgbsVYOi29ob0DwaFujq0Kg8k+oqpT9UWOOSu8IJgGjafMCWjwtNWVzlcq3zg2NlvWObCPRHUVjhGuQCocew8VJtlEQv5kOl6A/llryRY2h1KKXIRPapAn1zves+CJ/XdPue0KDB5H4529BsPdI5ecoBktY/ZRqSsduS+pOOVB9ztIwX64h9bVg49AsAcW7Q5UqkZJS22eo0pPju3QJTOs8GlBN8tsnU69/LN1W36bkelImfzosBebfQVAvskxJTqx8QS8S8em8EhfJg9BlMfXKCML/hlOVj+T3bDtoya7WhuUJ5DfeSz6YbYJhvwoPmpSx3VwkWCOcemx6x+VG4mQsIWCCOOPG4sdrjjvw1w9D8Ysp2y9ps9SxjflP+srHJXTiU45xaN5uQst7fLr5nLjNG+AcQo//MKzPVTwPnmrPB1HLg7Ucd9cl8NgYYtkD5vMhtx3xIPvt3vqmWXUqVFZellqiAmlagYXfPG3dGpeGkIz+UmfLCmOMOIAAaOJAHmpKjjprUXrIXRXYAAr2ooPme7gJ3KGiw5dl0N5sQJZf+7vsku/VagOaLclOVWaw5nIeIrGfTDO0DEcSYn28xNa7m5Qgd6nEBT426D5rHFI73PMLhnMZ78tARSBPtOO+GCNhRi4X69cIR2dbhaPxn4GZQKx7wkyigFrmAKTxgq4c2vK+lFZZuCvlqpiGLKi01o4lvhX+y6i2tq6I/lFn8OiP2qNSddNRrDZfiQ2AVJbnv2nj3ALtlsHnTn9MNydrjc5rHwmpjgcZbcI4oqGwI4ILGkIwxs5zzZ64GZfFOS0MHeH8LWmzVQcKvH7w7qjuGomTP32rKgdMBuXZ7VC0rLC3vQ/I6ugzi6n82uo46uAicqqjdlpezXH3r6zJTOs/fq7LwxkrfbWkc7bU1hmxv83WaJwoaFuWuNSpv57lbsWGd8PQTJEScER9aXmvJxhZbfprgHIRj1Z9w5HdL3RBAXpOtTjpvoSce1zba6mtho8j0WisUZUfJLjpsS3ajLYf670+CJ4TAHoF4qf+3yFRn4MS+p9PvaaXTRCMswUCsExYTnWNBpXWfeJh4LRziyNmA7lCBrkP6RVNPIGZaA6GMuSXuLl5YQmwqGc2xx3gAl9BGxh5L50aOUPoeK+69BSfOOVF+zwjQICZ42j/AdE4x5C/phqyoseTsjaDcGXF3OPcIjtgi8au9PyBJOyw1jdFFqIpgEwGvXaQjucm5LbbuoYMlRVHfsYsB9QqTR+MpvYAFqwy9ixwhNs1Gwf7PZlNQiCP1PZ3OzQjQeARnQd5eZyq3YVFnrzVkV6cjN4dH1Y8yZI6q/rOp2dads7CQ2F307bWGXHgAYLwxyMNhwyU4GhUQmP94lU9dDgr6EWNg4recDsi8YrdSAj0ITsa+yF4/0/k4o0CDDoOnmB2zcPRp4nnYNvmY3YgIzGJEEgV2LCxxqFhiJnyBqUknGInFRtoDgHhq2diW/KmGlgazPT9+GgDJPP6eZUjjKTadjBx2CO9/OnyfUaCB4LolyaWAxqiIYrPJEQtH3rF+FoyoX+Xf600pPmCrCJlsZh061OVbQdnZ5cgnha5zT8fwxiFvJ2lEUzOWVFmqOzGv6QCIeOY440DDTeuiDgY1UWrzYVtW1Vu6GzpK6JpGW/cbRqeBw8RDpEhtABrWF1Hsik5HcvbbkrbHkuW7LH1nA5s2EWnHckLfidTHdD03I0HjLQaKKQuGr4W0BioXsGaozvTaPIojog1nH76c89eDqlAT/3oUfSdiHzMaNIlI8Jkwp4QFTX6rreZzpDBCvISHAyBCCCzCbdhijS30cQZOVo+JNSbiEBMbs5+kdo74gR7lGLHGn+r/EhY0JFKR40v5LXGbeK0bCEhbgEEJCzXf6xpsSa2yJKPGksIWWy0scnBI3ppsJYK3QIg+/DbeOEf6AxpZZw/juuOOen0xwRljpoEnYUFDKiZOuhcyDNnSMrk99NBfMussId6EHwXTFxNbg4pL3COVm7z55WGVVPQiXheU1WBJyi5LltaM/6TUWLJ8tyVb293QxEwCTsKCho0AKF3B55FU5qYieE95rOP+k458utnUpG8t400aERLHqU2avdrQd0Th1MOHQ9iBmBDm82Q4GVxq93FHrbIlOy0tKV62y5LV+2whPrWy1pJF1e4H4KxutLXG6mEBGut+n8R/CQsa4jxfbnNfy8NWa7x4w3PTRyNU6+mAzN3svgMKJx4v4yDvl9IV4kyH+wNSf8qRdS22JnMBHqoEKAMmyy8eboCVRMxpZZ2lEXTM+b3djhy/FNDgKKELouukbVDK4oGHF5uduBw7thXtvhLtfMKCBtOY1w/ikCOTv6bT0TTOSAQETCR5AzLAQl4xe++19d6/Rx/Xs/B1Jxz5rNSNPCO68vbfHwWfOBac4vDZgHIUxA/7ALLzFqUvEzmV5yuq73Y0Ig54th1x5NwM2LAgYUHDU7/3lKPvUkCU/M96N6Ugko+FICSv70H/ITTw1XZTOgZiBwYN8nn7A7qxAKEAdqjgbXX0NREs3u9Lg0EpPWxLcpUl2fts5Sbef5GOgBmrivorUin4NJxyk8QitZ8u5xIWNBCQRVqz13JLTJJGdFMAxAAWSTiBcdF/sMHUmBJBSqyX8P+jfcccZ5sTjREtcN8VBReK1r71TEDI4ONdmxUd8Y1BX1dvBWXTQVtF1Zb2+xPBoo2XqOcTGjQQrfdaUN5bb2oVAvGcBVWWZsYBFLgRH8IBpEQQ/+G1y0SiuRaRgUgJ14XgJIgOT38hAs5Oooio78ut0C7oXENb70MwlORxxAwZgL0/xU6jmLjg5C4DtrX7bRVxE/+fTr8THjT4QgZuBOVvY+/sxiKanWPItjb3DXKIK8pieZkYddVejjCAwal3uDegQUwPJOcoT7kSDO0oCrdJLrNUb3o/35SDY/kuiK8LN9y2tD9+PiD5La5oQkThwJvMQh8dCGjOMYozImoy1yZa24QHDc43OAOJ2v8pMnU3CHQcXghG9txHhaZ8yVtzxxLLK7vct9VRKYAuAefZ0eGoEw4Q4DfhHHvVsBg459btdXc7J4UB0YYSvu+ko/nGLDIfrkEnWVJjSdlY8vpkFpN3XRW22vrOcaLjk7k20domPGg8gsEp2E9m3X5bs/pJgoLrIJaeJU9mQt0TRfjsDYPvpL3P3XECKwePLYvn7TeMoppbZ6lfh4rIxm5Hbg+7ZjX7/nkmM0fEC048QBNJIffmGul46lJA85R5UX21D5ro1kYk4v3Sc6Rk4hchFQGz+oNCU/6V4yZWofMUt7t13OgiiCcUZ8BC8hSiDpMXrgWomAti5qstboUlO1Ow+TV6EHoRu1u1nXU/rX0BNbGpbihpt5UbTeZesMzwHmfWWwrMyVybaG2nDaeZSDh0EXQNKhfL2231zcB5kirdF6RObB/pN8DilYcvZ7g5vGwFEq2WGx1pR6ejnIZ6KI9TRep34jlAWN7hCL6d9U22VopObDOdfk9b0IQTGRNc94FZ5r7jsrTdjivjnwTzogO2hhQQd3AQjwOF9+99b+sLqH+GkMFklGEsQMpjkqstKTvq6kxen9PxOCNAAxegyI2XolKaO3eLqd5gLKBIi4J+hMm+/0xA38JLgjiVBUce8F4FTHv8M4go3jmFpUUKRLhJHz4e8yL8gY8GLoMy3dIb2+kYfn2ifp8RoPGI++22e2/VpSqh9ZRbNMeiYoXpkXIXY1TjQpjxAAZTnQ0D4sm2I6ZEyihcA47Dex4UOPQf9lGT/86oBjBRntllfVeM3di9e5gOxxkFGkpHvi13zW/McsIKmORbW2zh/Zk1HY7ur8fbeLG4KNwHNLwLE6XZ8+XEWjj0k6PnAhrJhuNgDeU22QoIQhfsbAEHQnwR1PQAU3bY1pRTFPJY/U+H/2YUaFj0vutBdfXzOh+sKZx+L2Ua8io7n2e56RDEp3Rr2LEXlZHRh2UV74LdMUd1Jy22K4GDkB4BQIhHrdlnq+jCPIcbYarjlyEhDMDFO0Yit5tRoPEITRIWDr1FVZZQqvJCustRcACyM8ScTaZWDlDzTawpmk7i9RfpiL5EKAG9iBeTYU7DdcifIZ+GvfXwCbH5NRwQB2WkfqbjuRkJGhaCRWXnc5K5KP5nNwkcfaWHbCHvxotP/ZJFA2zoM1hHpExQC954xlFlt+uiu6ffwwDyl8xpKq6dsaCZCuL9fx3DB81j2pRpJgPKB40PmknrWj5ofND4oJnJYiFR7s3nND6n8TlNojyNM3kePqfxOY3PaWbyE54o9+ZzGp/T+JwmUZ7GmTwPn9P4nMbnNDP5CU+Ue/M5jc9pHg+nCQaDYlm2jIwYMjoaJe82OCpDQ3fk9u0hsZ0nVwxmWZbOYejOnUkTI1GeZNOy5OrVa0rzaPR+knONyWkAy+DgLTl56oy0H+mQQ4c7pOPYcbk5OCiOMz5B2rZtOdZ1XFoPtus1E2+Km6evoaEhcSaAit+XLl+RCxcviWmaocVm4c8OnJcbN29GBevEca7fuClt7UfkWNeJUD8T20zmN/Nmbl3Hu+Xa9RsSCIy/78n0xf3fvDko0DXWdZev/CRFW7YrvR7UNlY/j+u/mKAZvHVbKqt3y5xPv5R35nwmX3yXLK/8499SvatObt0eGnfjcKGKqp2yJi9fBs5dGPcfk7dtR3buqpOmlgMKuvAbunXrtqzKzpXl6Zly/vzF0LWHj3bItwuWSPmOqrgXq7evX3LWbZQtpRWhfsLHmux3y7YlLWO1/OmV12VzaYWCfrJ9eO2rample0WV3L07EnNunV0n5LW35shPV6/Ffd/eGFNxjAmaopIy+er7RVK7t1FM0xLY5o0bg9LT238faJisEwgoOILB+0UY169dv1HKKqrk8pWr44h2e2hI8vKLZFX2Wrl48XLoP7jF8rRMqareFTfxHjVoDNOUt96bq3Qo2rJNevvOhuY32QVamZUnS1IzHwgauAvjJqJo4p6jgubc+QuyNDVT0lflyJ3h4RChuCH0Bo9NDw/fleMnuqW4ZLsCorn1oMA5PIIODg5KY1OrbCwqkfnfJMmX3yVL9toNUrBpizTubxHDMATQrCsANLnjQNMFaNKzQqCB8+1rapXe/nsLB8sv2VYhjBMIBAXQMFZ+4RZpaGySlLRVsr6gSK5eux6asze3Bx3R406d6ZG5876Vmt31kpWzXur3NYXuLfz6I0c7JHfDJlm6IkPW5BVI26EjoXbVNbUC4OZ9naR9MR/oVVFVo/fv9XP6TK+U76iWzVvLlCvfuXPnPlGGalBbv0/HYSy4NyLZ6wM6tB48JH39Z2V3XYNkZK2VnHUFEcV1++EOWZ2br31lrVkne/c1ychIbC7IOFFB09rWLqkZ2QoEb0KRjoZhyvkLF2Xf/hbJzlmvix/OLe7cGZaT3acVOMkp6bJ8ZZaKPMDVfbpXTDsQAk1K6iq94Z7ePuGzc1etLFi0PAQaxgFYTa1tISIhCme/85HqPuhGgAZCfZeUIpXVu2R/8wHJL9wsi5dnaJtI9xDtHPoXnDErZ52cHTgni5ZlyMbN2/ShCb+mZHuFrMrKVdHT2HRAdu6uk+qaPaE5dhzrkpYDh2TB4jT5NilFacXCoici/ry+0J3QxxBhn335431Av3b9ulRV75bkpemyp36f0jQ1Y7VUVO5UvYt+eNih0Y+LVkjNnnodC3qsLyhWmtIG/ZMHEtAxFnOr29uotBq8dSs0H29eE49RQbOrdq+APsDgDuQoOFi4Kz9dlRHD0PNwHvQZ5C9PD6g+F6aXILLgVCiRWavzZNPmUjl1ukdu3b4tw3dHtDDfE0+IQvQR+uGzctUamff1ghBo+voHZOHSNBWX3o309g3Ic6+8riITYgCalLRMWbg0Xfr6zgqckPHe/3ie7G1sHsc1vT6iHa/8dE2+/H6RPrEAKCM7T1bnFsilS1f03uG2cLCPPvtauR20YTzOhYsxrEruN21VjixesUppxW8szXBFF67LeYyJf749R1CIoZ83PwCFfrW5tFzVA8YCGIAZDkw7aAQYoBNzYN67axuUSwIM2rBeO6pqZOGSVOVAjAuH0nUdcdfVGzPSMSpoqmr2KGhQXLkQjsGT67LVnXIhTPfQiRiGVFbV6FONFTRxMHSanLwCRTbECP/fA813C1OU+ACWz7qCYvnmxyUxQdN39py89Nrb0tPXr08QoFmZmSN5+cWhMdANkpakyrbySiVM+NjRvgMIxMWs2e/K6Z4+5QjVu2r1oTjYdlj7xtJjIT/+/Bs5fvJUaLxofWZk5cnS1KwH6jTocpFAU1ZRrZyq/+xAaKzr12/I/G+TpXhrhYpfQJO+arUaJYCDuZw6fUZFdGlZZWjecOAfkpfrejAeXO5uHKKJ/qKCBrmZkZWjKKUh5i+sGhQnLV4hnV3HQxPnf2Th9opK2bCxWE1nzoV/HgSaeHSaSJwmEmgmWk+AZnXuhhA3CJ9XtO9wR0TNS7Pelv3NB+VoR5ewaNz/1u2uZcY9o1MgVsMXMlqfvxQ0hVu2y+dfJY2zPoeHh2Xe1wtl/cYtqh9BI9Ztb8P+kPuCc3kbNsmmzdt0TeBuiKHlK7OVS2GglJbtUA4Hc4g2f+98VNAACnSaopLt4llDDNbcclBWZq6JABpDyiuqZMPGzTFBw9MeidPEAxoWBo6BPOcGAENP31n5y6y3xoknFG38HN5N0g65Xrq9Ypyi7f0f6ciTty6/SGa/86G8+e4n8ua7c/Xz2hvvSUZWrnI12DrKfPKYKIjUT/i5XwoauMm8b5NVvHn9In7mfbNQ8jdtVZDEAxrvWo6sRVPLQVmwOFXmzv9eOjq7QnQLbxf+PSposFSQvwtTMkLsNBZoICDsG6sllnhCvE38P17r6cKFS2r64u/gJlB8cTY+9fwsOdPTFxJPyHgWyLtRQDPnP1/q/MItO+//SEdYNpYeFgXmL/fOp3hruSQtSVOWj+ebRXr93x/FRexfChqsoUUp6XLo8NHQvfUPnJOvf1ws5ZU79dxkQcO9Q58T3afU6kSpjkSP8HNRQaMAaW0TLB4Uy67jJ3Vh+M2TxW86wuTFE3z4yD3zDYWLc+EcBQIj8j6Z940UFm8VTFQsEuSugiZ/k6xYmaXKtjdBNPxlaZlqhqJjAJLvFi5TlorGf6DtsIqGiZwGcfHhp1+pvAZMsF4UYYDAfXn9RzuiUO+pb5RZb3wg6Azh1xxoa1dLCVENsWmLDpW0OFX1MNwBWEaYzhP7r6reo8on5jf0gYY4PWnnWaGcZ+FmzX5PGptaFIwAAbExcO68mvWfzv9BrR8U3e8XLlPOd7L7jPaDbgcdY4knHvDdtXulvqFJjQQMhbz8TWpx/iJOw43A+o4c7VS/AX4V9BU4CR1jEdAGrlG1c7cqwVhGmLcQFO2864QLLNpBYDR01ytaKRWV1YKf4O7du8rJ6h8OHOcAAAHpSURBVBsaZdee+nHyGvMR5fpox7HQwrW1d6gIRG9hXICTuXqdKriENhArKNEABdMXWY6YQS8BnMzlQR/0N/rN3VB0X8jj4qXLKh4hutcPVhOGA/4haAQdGiL4c/CnADrog0le14DT1A2bKK07OpVu28sr1ddTsaNa6cQ1hFJoy0OwtWyH5G4o1LHw6aCEe15mLCBof+LkqRAgeXjxWdEPc8bMxw1A/zzArO2W0nI1veOJ2UXlNB5B0KghSuexLl08UM9T4f0PePAQT/xwczylXjvvCHB4Yvifm4F7qOl69VooSOe1Hb57V0GAGQroOM85njCAq0/g8LA6snh6aAPxrl27riC6eOmKEIo40X1aTeFwjuGNEemI85K5h4c0vHbcO8FEwOmd40h7WPyRjk51dmJ2h//vfcdhd+7cBb0HfEzcO//hbWfBoQv3BxeGa5zu6RWA6jndcDjSjnH48NAiPr3+oQNzA4Te/XItPh5oTzvO8z8OQHRXaIm+GO7E9fqLdHwgaCJd5J97MLeayTTyQROHuJrJAHiYe/NB44MmJNriBZAPGh80PmjifVr8dg+vl/mcxuc0PqfxOcjDc5B4aedzGp/T+Jwm3qfFb/fwHMnnND6n8TmNz0EenoPESzuf0/icZtKc5v8A9KkpxWBa8K0AAAAASUVORK5CYII=;" vertex="1" parent="35">
                    <mxGeometry x="271.88" y="127.25" width="48.21" height="40" as="geometry"/>
                </mxCell>
                <mxCell id="49" value="&lt;h1&gt;Architectural Desgin&lt;/h1&gt;&lt;p&gt;&lt;br&gt;&lt;/p&gt;" style="text;html=1;strokeColor=none;fillColor=none;spacing=5;spacingTop=-20;whiteSpace=wrap;overflow=hidden;rounded=0;" vertex="1" parent="1">
                    <mxGeometry x="740" y="90" width="250" height="40" as="geometry"/>
                </mxCell>
                <mxCell id="50" value="" style="endArrow=none;html=1;elbow=vertical;exitX=0;exitY=1;exitDx=0;exitDy=0;entryX=1;entryY=1;entryDx=0;entryDy=0;" edge="1" parent="1" source="49" target="49">
                    <mxGeometry width="50" height="50" relative="1" as="geometry">
                        <mxPoint x="890" y="270" as="sourcePoint"/>
                        <mxPoint x="940" y="220" as="targetPoint"/>
                    </mxGeometry>
                </mxCell>
                <mxCell id="51" value="&lt;font color=&quot;#999999&quot;&gt;Owner: Long Bui Van - Last Edit: 3 Mar 2022&lt;/font&gt;" style="text;html=1;strokeColor=none;fillColor=none;align=center;verticalAlign=middle;whiteSpace=wrap;rounded=0;" vertex="1" parent="1">
                    <mxGeometry x="740" y="130" width="250" height="30" as="geometry"/>
                </mxCell>
            </root>
        </mxGraphModel>
    </diagram>
</mxfile>